<svg xmlns="http://www.w3.org/2000/svg" viewBox="0 0 19.8 18.17"><defs><style>.cls-1{fill:#010101;stroke:#000;stroke-miterlimit:10;stroke-width:0.25px;}</style></defs><title>Newsletter</title><g id="Ebene_2" data-name="Ebene 2"><g id="Ebene_1-2" data-name="Ebene 1"><path id="Shape" class="cls-1" d="M18.69,18H1.1a1,1,0,0,1-1-1V5a.35.35,0,0,1,.19-.29.32.32,0,0,1,.35,0l8,6.64a2,2,0,0,0,2.49,0l8-6.64a.3.3,0,0,1,.34,0,.31.31,0,0,1,.19.29V17.07A1,1,0,0,1,18.69,18ZM.78,5.71V17.07a.32.32,0,0,0,.32.32H18.69a.32.32,0,0,0,.33-.32V5.71l-7.46,6.2a2.62,2.62,0,0,1-3.32,0Z"/><path id="Shape-2" data-name="Shape" class="cls-1" d="M.45,5.34a.32.32,0,0,1-.31-.23.33.33,0,0,1,.12-.36L3.19,2.67a.33.33,0,0,1,.46.08.32.32,0,0,1-.08.45L.64,5.28a.33.33,0,0,1-.19.06Z"/><path id="Shape-3" data-name="Shape" class="cls-1" d="M19.35,5.34a.31.31,0,0,1-.19-.06L16.23,3.2a.32.32,0,0,1,.37-.53l2.93,2.08a.32.32,0,0,1,.13.36.33.33,0,0,1-.31.23Z"/><path id="Shape-4" data-name="Shape" class="cls-1" d="M.66,17.87a.32.32,0,0,1-.3-.22.32.32,0,0,1,.09-.36l7.44-6.18a.33.33,0,0,1,.32,0,.32.32,0,0,1,.21.25.32.32,0,0,1-.12.31L.87,17.79a.32.32,0,0,1-.21.08Z"/><path id="Shape-5" data-name="Shape" class="cls-1" d="M19.13,17.87a.3.3,0,0,1-.2-.08l-7.44-6.17a.34.34,0,0,1-.11-.31.32.32,0,0,1,.21-.25.33.33,0,0,1,.32,0l7.43,6.18a.31.31,0,0,1,.1.36.33.33,0,0,1-.31.22Z"/><path id="Shape-6" data-name="Shape" class="cls-1" d="M16.41,7.77a.32.32,0,0,1-.32-.32V.78s0,0,0,0H3.71V7.45a.32.32,0,0,1-.33.32.32.32,0,0,1-.32-.32V.78A.66.66,0,0,1,3.74.13H16.05a.67.67,0,0,1,.69.65V7.45A.32.32,0,0,1,16.41,7.77Z"/><rect class="cls-1" x="5.03" y="3.52" width="9.91" height="0.5" rx="0.25"/><rect class="cls-1" x="5.03" y="5.52" width="9.91" height="0.5" rx="0.25"/></g></g></svg>