<svg xmlns="http://www.w3.org/2000/svg" viewBox="0 0 14.6 18.77"><defs><style>.cls-1{fill:#010101;}</style></defs><title>Store</title><g id="Ebene_2" data-name="Ebene 2"><g id="Ebene_1-2" data-name="Ebene 1"><path class="cls-1" d="M7.3,0A7.3,7.3,0,0,0,1.09,11.14l5.79,7.34a.63.63,0,0,0,.52.29h0a.63.63,0,0,0,.51-.3L13.57,11A7.3,7.3,0,0,0,7.3,0Zm5.23,10.42L7.39,17,2.12,10.5a6.09,6.09,0,1,1,10.41-.08Z"/><path class="cls-1" d="M7.3,3.65A3.65,3.65,0,1,0,11,7.3,3.66,3.66,0,0,0,7.3,3.65Zm0,6.09A2.44,2.44,0,1,1,9.74,7.3,2.44,2.44,0,0,1,7.3,9.74Z"/></g></g></svg>