<svg xmlns="http://www.w3.org/2000/svg" width="73" height="64" fill="none" xmlns:v="https://vecta.io/nano"><path d="M13.433 31.198c3.753-17.776 21.79-26.717 30.34-28.966 0 9.302 5.465 20.093 12.907 28.966 5.693 6.787 10.42 19.034-4.465 29.453C43.54 66.724 8.74 53.42 13.433 31.198z" fill="#fff"/><g fill="#373939"><path fill-rule="evenodd" d="M36.885.886l.82-.886.82.886C53.778 17.347 61.9 30.856 61.9 40.01 61.9 53.223 51.1 64 37.704 64S13.518 53.223 13.518 40.01c0-9.153 8.112-22.662 23.367-39.123zM15.75 40.01c0 12.032 9.823 21.776 21.954 21.776s21.954-9.744 21.954-21.776c0-8.34-7.814-21.333-21.953-36.76-14.14 15.428-21.953 28.42-21.953 36.76z"/><path d="M21.704 38.533c0-.59-.447-1.107-1.042-1.18a1.2 1.2 0 0 0-1.191 1.034c-.223 6.57 3.572 19.266 19.647 20.374h.074c.595 0 1.116-.517 1.116-1.107s-.447-1.033-1.042-1.107C21.332 55.437 21.63 39.27 21.704 38.533z"/></g></svg>