<svg xmlns="http://www.w3.org/2000/svg" width="73" height="64" fill="none" xmlns:v="https://vecta.io/nano"><path d="M7.7 36.807c4.5-9.3 11.625-11.375 14.625-11.25C15.575 1.932 42.95 1.932 51.2 9.432c5.406 4.914.625 15.75-2.25 21.375 2.5-1.875 8.016-5.25 13.125-5.25 7.875 0 12 10.5 3 21.375-5.905 7.135-20.625 12.375-42.75 12.375-17.868 0-20.25-10.875-14.625-22.5z" fill="#fff"/><path fill-rule="evenodd" d="M2 39.11c.075-7.433 5.85-13.6 13.275-14.116l1.2-.075c.675 0 1.35 0 2.025.075-.075-9.91 7.425-18.246 17.25-19.147a19.12 19.12 0 0 1 20.925 17.119h.3c7.35 0 13.275 8.41 13.275 15.392 0 7.133-5.7 15.392-13.125 15.392h-40.5C8.6 53.6 2.15 47.143 2 39.11zm14.625 12.39h40.5c6.075 0 10.875-7.208 10.8-13.065 0-5.932-5.1-13.14-11.025-13.14h-1.2l-1.125.075-.075-1.2C54.126 14.932 46.476 7.8 37.326 7.95c-9.375.225-16.725 7.96-16.575 17.27v.375c8.7 2.553 9 11.94 9 12.014 0 .6-.525 1.126-1.125 1.126s-1.125-.526-1.125-1.126c0-.45-.45-10.06-11.025-10.437H16.1c-6.6 0-11.85 5.33-11.85 11.94.075 6.833 5.55 12.314 12.375 12.39z" fill="#373939"/></svg>