<svg xmlns="http://www.w3.org/2000/svg" xmlns:xlink="http://www.w3.org/1999/xlink" width="50" height="51" xmlns:v="https://vecta.io/nano"><defs><path id="A" d="M0 .85h49.097v48.912H0z"/></defs><g fill="none" fill-rule="evenodd"><g transform="translate(0 .149)"><mask id="B" fill="#fff"><use xlink:href="#A"/></mask><path d="M49.097 25.307c0 13.507-10.99 24.456-24.55 24.456S0 38.814 0 25.307 10.99.85 24.548.85s24.55 10.95 24.55 24.456" fill="#6d954a" mask="url(#B)"/></g><path d="M31.24 17.996c0 .412-.335.746-.746.746h-.33c-.035-.67-.184-1.13-.346-1.492h.676a.75.75 0 0 1 .746.746h0zm-6.173 3.222a4.01 4.01 0 0 0 .525-1.87h1.857c-.04.282-.134.488-.236.7a.3.3 0 0 0 .132.406c.15.076.332.017.407-.133.156-.306.322-.68.322-1.26 0-.993-.5-1.378-.734-2.18-.2-.77-.2-1.516-.063-2.097h1.576c-.328.832-.172 1.573.234 2.358.235.457.478.928.48 1.91v.01c0 1.005-.243 1.466-.477 1.914l-.13.252h-3.892zm6.173 1.35a.75.75 0 0 1-.746.746h-5.556c-.133-.274-.226-.537-.226-.922 0-.225.03-.406.08-.57h5.7c.41 0 .746.334.746.746h0zm-1.968 2.543c-.142.203-.368.32-.616.32-.32 0-.61-.21-.717-.52-.124-.36-.3-.644-.464-.992h1.665c.22.43.41.798.132 1.19h0zm-4.573 0c-.143.203-.367.32-.616.32a.76.76 0 0 1-.716-.52c-.258-.746-.753-1.115-.753-2.52 0-1.738.75-1.9.872-3.045h1.5c-.043.804-.26 1.217-.47 1.618-.922 1.755-.054 2.537.277 3.46.084.233.05.483-.093.686h0zm-8.906-1.797c-.26-.535-.282-1.054-.147-1.492h6.4a5.52 5.52 0 0 0-.027.57c0 .357.03.66.08.922h-6.295zm4.426 1.11c.084.233.05.483-.092.686a.75.75 0 0 1-.617.321c-.32 0-.61-.21-.716-.52-.125-.36-.31-.644-.464-.992h1.664c.08.155.158.318.225.505h0zm-4.666.686c-.142.203-.368.32-.616.32-.32 0-.61-.21-.717-.52-.257-.747-.752-1.115-.752-2.52 0-1.733.75-1.902.872-3.045h1.5c-.084 1.568-.88 1.74-.88 3.045 0 .925.436 1.34.685 2.033a.74.74 0 0 1-.093.686h0zm-3.012-1.797a.75.75 0 0 1-.747-.746c0-.412.335-.746.747-.746h.35c-.017.173-.027.362-.027.57 0 .357.03.66.078.922h-.4zm-.747-5.32a.75.75 0 0 1 .747-.746h5.142c.228.622.536.958.618 1.492h-5.76a.75.75 0 0 1-.747-.746h0zm4.003-3.222h1.717c-.1.545-.1 1.274.003 1.87H15.8a1.97 1.97 0 0 1-.003-1.87h0zM11.794 8.85c0-.412.335-.746.747-.746h4.97a5.62 5.62 0 0 0-.048 1.493H12.54a.75.75 0 0 1-.747-.747h0zm2.43-2.345a.76.76 0 0 1 .716-.518.74.74 0 0 1 .616.32c.277.394.088.763-.134 1.192h-1.668c.156-.352.344-.625.47-.994h0zm4.574 0c.105-.3.393-.518.715-.518.248 0 .473.116.617.32.523.746-.597 1.347-.597 2.72 0 1.272.795 1.506.88 3.046h-1.5c-.124-1.116-.87-1.355-.87-3.046 0-1.44.5-1.77.757-2.52h0zm4.295.607c.098-.188.2-.384.277-.607a.76.76 0 0 1 .717-.518.74.74 0 0 1 .615.32c.143.204.177.455.093.69a4.3 4.3 0 0 1-.227.503H22.9l.193-.387zM26.6 9.597h-6.388a1.87 1.87 0 0 1-.084-.571 1.92 1.92 0 0 1 .225-.922h6.295a5.58 5.58 0 0 0-.048 1.493h0zm1.333-3.092a.76.76 0 0 1 .716-.518.74.74 0 0 1 .616.32c.523.744-.596 1.352-.596 2.72 0 1.274.795 1.508.88 3.046h-1.5c-.126-1.133-.872-1.333-.872-3.046 0-1.44.5-1.77.757-2.52h0zM31.24 8.85a.75.75 0 0 1-.746.747h-1.126c-.052-.167-.084-.348-.084-.57a1.92 1.92 0 0 1 .225-.922h.985c.41 0 .746.334.746.746h0zm-4.577 7.794h-1.718c-.32-.657-.31-1.25-.003-1.87h1.718a5.49 5.49 0 0 0 .003 1.87h0zm-4.52-6.442c.223.873.64 1.228.734 1.87h-1.858c-.046-.923-.305-1.446-.524-1.87h1.648zm2.247 0l.124.246a3.59 3.59 0 0 1 .481 1.93 3.51 3.51 0 0 1-.479 1.904c-.412.782-.562 1.534-.232 2.362h-1.576c-.063-.28-.093-.587-.093-.934a3.51 3.51 0 0 1 .479-1.915c.957-1.82-.006-2.572-.322-3.593h1.618zm3.06 1.87h-1.856c-.046-.923-.306-1.446-.525-1.87h1.65c.226.885.637 1.222.732 1.87h0zm-11.003.605h6.43c-.13.87-.866 1.21-.866 3.032a4.94 4.94 0 0 0 .081.935h-1.718c-.322-.66-.307-1.253-.002-1.87h.677a.3.3 0 0 0 .302-.302c0-.167-.135-.302-.302-.302h-4.945c.16-.36.31-.815.343-1.493h0zm1.538-1.454c.15.287.273.526.32.85h-1.856c-.047-.923-.306-1.446-.525-1.87h1.65c.11.435.273.747.413 1.02h0zm-2.062 9.995c.22-.417.48-.932.525-1.87h1.857c-.092.653-.515 1-.737 1.87H15.92zm2.274 0c.245-.8.733-1.152.733-2.166 0-.993-.5-1.378-.735-2.18l-.006-.02c-.187-.63-.184-1.49-.055-2.076h1.575c-.347.88-.138 1.638.233 2.358.236.457.48.928.48 1.91v.01c0 1.005-.244 1.466-.48 1.914l-.13.252h-1.618zm3.945 0h-1.646c.22-.417.48-.932.525-1.87h1.858c-.093.652-.514.985-.737 1.87h0zm-1.122-2.476c-.035-.67-.183-1.13-.345-1.492h6.156c.228.622.535.958.617 1.492h-6.428zm10.222-5.32a.75.75 0 0 1-.746.747h-5.246c.162-.36.308-.815.344-1.493h4.902a.75.75 0 0 1 .746.746h0zm-18.7.747a.75.75 0 0 1-.747-.747.75.75 0 0 1 .747-.746h1.187c-.08.55-.39.86-.62 1.493h-.566zm16.974.604h.98a1.35 1.35 0 0 0 1.351-1.351c0-.745-.606-1.35-1.35-1.35h-.33c-.047-.923-.306-1.446-.525-1.87h.854c.745 0 1.35-.606 1.35-1.352s-.606-1.35-1.35-1.35h-.68c.248-.543.306-1.042-.045-1.54a1.36 1.36 0 0 0-1.111-.577c-.58 0-1.1.373-1.288.927-.13.38-.365.68-.55 1.2h-1.58l.122-.298a1.36 1.36 0 0 0-1.278-1.819c-.58 0-1.1.373-1.288.927a3.75 3.75 0 0 1-.242.521c-.1.192-.212.405-.31.67H20.67l.122-.298a1.36 1.36 0 0 0-1.279-1.819c-.58 0-1.097.373-1.288.927a3.63 3.63 0 0 1-.241.521c-.1.192-.212.404-.308.67h-1.58c.248-.543.306-1.042-.044-1.54a1.36 1.36 0 0 0-1.112-.577c-.58 0-1.098.373-1.288.927-.13.38-.366.682-.55 1.2h-.56c-.745 0-1.352.606-1.352 1.35s.607 1.352 1.352 1.352h2.702l.125.246c.235.458.48.932.48 1.92v.004c-.003 1.8-.887 1.997-.887 3.338a2.42 2.42 0 0 0 .176.934H13.56c-.062-.28-.093-.587-.093-.934 0-1.874.887-1.95.887-3.342 0-.57-.165-.947-.335-1.283-.075-.15-.258-.21-.406-.134s-.2.257-.134.406c.112.222.21.435.25.715H12.54c-.745 0-1.352.606-1.352 1.35s.607 1.35 1.352 1.35h.4a5.49 5.49 0 0 0 .001 1.87h-.402c-.745 0-1.352.607-1.352 1.352s.607 1.352 1.352 1.352h1.19c-.092.652-.512.985-.735 1.87h-.454c-.745 0-1.352.606-1.352 1.35s.607 1.352 1.352 1.352h.564c.18.497.416.82.544 1.19a1.37 1.37 0 0 0 1.288.928 1.36 1.36 0 0 0 1.279-1.816l-.122-.3h1.583c.18.5.418.824.544 1.19a1.37 1.37 0 0 0 1.289.928c.442 0 .857-.216 1.112-.577a1.36 1.36 0 0 0 .167-1.239l-.122-.3h1.585c.18.497.415.82.543 1.19.19.555.71.928 1.288.928a1.36 1.36 0 0 0 1.279-1.816l-.123-.3h1.585c.18.498.416.82.544 1.19.19.555.71.928 1.288.928a1.36 1.36 0 0 0 1.111-.577c.363-.516.282-1.018.045-1.54h.682c.745 0 1.35-.607 1.35-1.352s-.606-1.35-1.35-1.35h-.855a4.01 4.01 0 0 0 .526-1.87h.33c.745 0 1.35-.607 1.35-1.352s-.606-1.352-1.35-1.352h-.977c-.322-.66-.306-1.252-.002-1.87h0z" fill="#fefefe"/><path d="M26.432 22.114l-3.467 3.467c-.37.37-.37.973 0 1.343l.063.062a.95.95 0 0 0 1.342 0l3.468-3.467c.37-.37.37-.973 0-1.343l-.063-.062c-.37-.37-.973-.37-1.343 0" fill="#6d954a"/><path d="M24.48 49.772A24.56 24.56 0 0 1 5.21 39.857c.1-1.23 1.276-16.47 4.165-12.64 2.02 2.682.692 7.898 2.16 7.85 1.454-.054 6.454-5.058 10.262-8.863.07-.072.138-.142.202-.2 2.156-2.175 3.884-3.912 4.312-4.083 1.327-.53 2.67.807 2.034 1.588-.443.534-2.204 2.163-4.098 3.998-.083.087-.18.17-.264.256-2.986 2.874-6.168 6.15-5.058 6.448.93.253 4.284-2.487 7.49-5.32l.373-.333 6.194-5.6c1.16-.518 2.81.804 1.87 2.3-.315.503-1.93 2.042-3.88 3.9l-.51.473c-3.814 3.605-8.6 8.092-7.857 8.442.91.42 6.984-5.67 10.376-8.554.256-.22.5-.416.72-.6.605-.48 1.07-.795 1.327-.854a1.98 1.98 0 0 1 1.471.176 1.63 1.63 0 0 1 .469.34c.523.524.682 1.354.08 2.165-1.114 1.523-12.093 9.995-10.484 11.516 1.123 1.06 5.525-4.848 8.116-5.884 1.708-.682 2.616 1.507 2 2.177-.516.54-9.16 8.444-12.2 11.207z" stroke="#fefefe" stroke-width=".75"/></g></svg>