<?xml version="1.0" encoding="UTF-8"?>
<svg width="15px" height="15px" viewBox="0 0 15 15" version="1.1" xmlns="http://www.w3.org/2000/svg" xmlns:xlink="http://www.w3.org/1999/xlink">
    <title>like</title>
    <g id="Page-1" stroke="none" stroke-width="1" fill="none" fill-rule="evenodd">
        <g id="Reco" transform="translate(-47.000000, -1431.000000)" fill="#333333" fill-rule="nonzero" stroke="#333333" stroke-width="0.5">
            <g id="Kundenfavorit" transform="translate(38.000000, 1427.000000)">
                <g id="like" transform="translate(10.000000, 5.000000)">
                    <path d="M13.608,7.68326258 C13.608,7.3474425 13.4724781,7.03451509 13.238883,6.80372883 C13.5036809,6.51819926 13.638618,6.13541519 13.6017541,5.73702011 C13.5354151,5.02679772 12.8861913,4.47024948 12.123027,4.47024948 L8.620668,4.47024948 C8.79417,3.951131 9.07199114,2.99954039 9.07199114,2.23512474 C9.07199114,1.02312362 8.027019,0 7.37099114,0 C6.78244514,0 6.36115528,0.32688827 6.34358714,0.340299071 C6.27610528,0.393392222 6.23698228,0.473857027 6.23698228,0.558774637 L6.23698228,2.45360031 L4.60346414,5.93985847 L4.53598228,5.97393552 L4.53598228,5.86719917 C4.53598228,5.71297496 4.40896542,5.58779876 4.25247342,5.58779876 L1.41749114,5.58779876 C0.635615859,5.58782495 0,6.21422983 0,6.98477464 L0,11.4550503 C0,12.2256213 0.635615859,12.852 1.41749114,12.852 L3.11849114,12.852 C3.73140928,12.852 4.25531728,12.4664395 4.45263328,11.9283311 C4.924395,12.1674991 5.55942614,12.2932254 5.9535,12.2932254 L11.1580019,12.2932254 C11.7754649,12.2932254 12.3158247,11.8830696 12.442815,11.3175896 C12.5080111,11.0259047 12.470031,10.7325434 12.340755,10.4777382 C12.759201,10.2704208 13.0410089,9.84407786 13.0410089,9.35961268 C13.0410089,9.16180337 12.9950819,8.97237581 12.9083309,8.8013881 C13.3267769,8.59352068 13.608,8.16772776 13.608,7.68326258 Z M12.412197,8.37279252 C12.3027749,8.38565327 12.2103361,8.45883643 12.1751999,8.56222008 C12.1406217,8.66560374 12.1695387,8.7790193 12.2500439,8.853905 C12.3940707,8.98746296 12.4740177,9.16738247 12.4740177,9.35961268 C12.4740177,9.71219626 12.2035587,10.0083602 11.8457906,10.0491426 C11.7363684,10.0620034 11.6439297,10.1351865 11.6087934,10.2385702 C11.5742153,10.3419538 11.6031323,10.4553694 11.6836374,10.5302551 C11.8701893,10.7034692 11.9450333,10.94654 11.8889003,11.1968924 C11.8191593,11.5086935 11.5118364,11.7344507 11.1580284,11.7344507 L5.9535,11.7344507 C5.49308714,11.7344507 4.72083314,11.5215543 4.453218,11.257241 C4.37212814,11.1779025 4.24965614,11.1544336 4.14419414,11.1968924 C4.038174,11.2399274 3.96899114,11.3421848 3.96899114,11.4550503 C3.96899114,11.9171729 3.587409,12.2932254 3.11849114,12.2932254 L1.41749114,12.2932254 C0.948573281,12.2932254 0.566991141,11.9171729 0.566991141,11.4550503 L0.566991141,6.98477464 C0.566991141,6.52265206 0.948573281,6.14659959 1.41749114,6.14659959 L3.96899114,6.14659959 L3.96899114,6.426 C3.96899114,6.52267825 4.02002114,6.61262491 4.10392828,6.66404171 C4.18671914,6.71320592 4.29103828,6.71823497 4.37949028,6.67577617 L4.94648142,6.39637575 C5.00375728,6.36842785 5.04968428,6.32149005 5.07690028,6.26394409 L6.77790028,2.63184347 C6.79491028,2.59496377 6.80397342,2.55473137 6.80397342,2.51449896 L6.80397342,0.710196199 C6.92192714,0.645944842 7.12663186,0.558774637 7.37099114,0.558774637 C7.681716,0.558774637 8.505,1.31983758 8.505,2.23512474 C8.505,3.2185922 7.96182286,4.63620814 7.95671986,4.65019519 C7.92384272,4.73568904 7.935165,4.8323673 7.987896,4.9083531 C8.04118514,4.98378886 8.12852086,5.02905031 8.22149114,5.02905031 L12.123027,5.02905031 C12.595905,5.02905031 12.997341,5.36264398 13.0370221,5.78843691 C13.067082,6.10694343 12.9117063,6.40981274 12.633327,6.5791241 C12.546576,6.63164101 12.4949879,6.72664291 12.498948,6.82777397 C12.5029081,6.92890503 12.561885,7.01942794 12.6525961,7.06581569 C12.8924371,7.18596284 13.0409823,7.42287826 13.0409823,7.68326258 C13.0409823,8.03584615 12.7705499,8.33201007 12.412197,8.37279252 Z" id="Shape"></path>
                    <path d="M4.158,6.048 C3.94935052,6.048 3.78,6.1665487 3.78,6.31260744 L3.78,11.0753926 C3.78,11.2214513 3.94935052,11.34 4.158,11.34 C4.36664948,11.34 4.536,11.2214513 4.536,11.0753926 L4.536,6.31260744 C4.536,6.1665487 4.36664948,6.048 4.158,6.048 Z" id="Path"></path>
                </g>
            </g>
        </g>
    </g>
</svg>