<svg version="1.1" id="Infografik_x5F_Wasser" xmlns="http://www.w3.org/2000/svg" x="0" y="0" viewBox="0 0 93 93" xml:space="preserve"><style>.st0{fill:#333}</style><path class="st0" d="M44.6 3.3l-1.1 1.2C23 26.8 12.1 45.1 12.1 57.5 12.1 75.4 26.6 90 44.6 90s32.5-14.6 32.5-32.5c0-12.4-10.9-30.7-31.4-53l-1.1-1.2zm0 83.7c-16.3 0-29.5-13.2-29.5-29.5 0-11.3 10.5-28.9 29.5-49.8 19 20.9 29.5 38.5 29.5 49.8C74.1 73.8 60.9 87 44.6 87z"/><path class="st0" d="M23.1 55.5c0-.8-.6-1.5-1.4-1.6-.8 0-1.5.6-1.6 1.4-.3 8.9 4.8 26.1 26.4 27.6h.1c.8 0 1.5-.7 1.5-1.5s-.6-1.4-1.4-1.5C22.6 78.4 23 56.5 23.1 55.5z"/></svg>