<svg xmlns="http://www.w3.org/2000/svg" width="46" height="47" fill="#94a880" xmlns:v="https://vecta.io/nano"><path d="M44.917 29.43c-.272-.68-.817-1.089-1.497-1.361-1.361-.272-2.722 0-3.947.681l-6.397 2.586c-.544-.544-1.361-.953-2.042-.953l-8.439.136c-1.769-.272-3.403-.817-5.036-1.497-3.267-1.361-6.805.817-8.575 2.178-.953-1.225-2.314-1.906-3.811-1.906h-.408C2.178 29.294 0 31.472 0 34.058v7.35c0 2.586 2.178 4.764 4.764 4.764h.408c1.906 0 3.675-1.225 4.356-2.994l5.036-.544c2.178 2.042 5.036 3.267 8.031 3.267 2.314 0 4.628-.681 6.669-1.77l14.292-10.208c1.497-1.225 2.042-2.994 1.361-4.492zM7.214 41.136c0 1.089-.953 2.042-2.042 2.042h-.408c-1.089 0-2.042-.953-2.042-2.042v-7.35c0-1.089.953-2.042 2.042-2.042h.408c1.089 0 2.042.953 2.042 2.042v7.35zM42.195 31.2L27.767 41.544c-.272.136-6.533 3.947-11.706-1.497l-.408-.544-5.717.544v-6.261c1.089-.953 4.356-3.403 6.533-2.45 1.906.953 3.947 1.497 5.989 1.769l8.439-.136c.408 0 .408.544.408.953 0 .272 0 .408-.136.544-.136.272-.272.272-.408.272h-9.119v2.722h9.119c.817 0 1.633-.272 2.178-.817.681-.681 1.089-1.633.953-2.586v-.136l6.533-2.722c.681-.272 1.361-.817 1.77-.544.272.136.408.408 0 .544z"/><path fill-rule="evenodd" d="M24.852 1.089L23.944 0l-1.038 1.384-.011.022-.058.087-.165.244-.544.83c-.436.689-.99 1.63-1.498 2.707-1.008 2.136-1.867 4.872-1.155 7.222l.005.014c.551 1.514 1.637 2.765 3.25 3.489v1.117a3.53 3.53 0 0 0-.954-.716c-1.989-1.273-4.658-1.536-7.704-.567l-1.041.347.172 1.031c.005.079.031.208.071.36.05.184.129.428.252.712.245.567.661 1.297 1.349 2.029 1.353 1.44 3.734 2.865 7.855 3.117v4.234h2.45v-4.234c4.121-.252 6.501-1.677 7.855-3.117.688-.732 1.104-1.461 1.349-2.029a5.29 5.29 0 0 0 .252-.712c.04-.149.065-.276.071-.355l.165-.824-.835-.668-.029-.014c-2.103-.981-4.495-1.126-6.613-.278l-.011.004-.01.005c-.875.437-1.677.968-2.328 1.662v-1.373c1.354-.594 2.429-1.708 3.106-3.199l.005-.012c1.145-2.862-.023-6.78-3.297-11.419l-.006-.009zM22.34 7.627c.464-1.262 1.106-2.465 1.624-3.384.951 1.598 1.606 3.04 1.959 4.299.382 1.361.405 2.487.094 3.366-.368.854-1.092 1.593-2.061 1.985-.994-.399-1.813-1.145-2.049-2.088l-.005-.016c-.38-1.204-.101-2.696.438-4.163zm3.391 13.198c.559-1.277 1.526-2.417 2.702-3.128a5.18 5.18 0 0 1 1.92-.381c.552 0 1.107.095 1.664.286-.61 1.124-2.268 2.882-6.286 3.223zm-7.854-1.406c-.907-.591-1.464-1.26-1.811-1.805 1.467-.38 3.131-.113 4.468.608.811.7 1.512 1.599 1.93 2.604-2.114-.178-3.574-.747-4.586-1.407z"/></svg>