<svg xmlns="http://www.w3.org/2000/svg" width="101" height="101" fill="none" xmlns:v="https://vecta.io/nano"><g fill="#94a880"><path d="M70.347 53.895a2.12 2.12 0 0 0-1.274-1.162 4.9 4.9 0 0 0-3.352.581l-5.431 2.201a2.65 2.65 0 0 0-1.732-.815l-7.132.122c-1.472-.252-2.909-.679-4.279-1.273-2.751-1.161-5.807.693-7.305 1.844-.379-.502-.868-.909-1.43-1.19s-1.181-.428-1.81-.43h-.357c-1.081 0-2.117.429-2.882 1.194s-1.194 1.801-1.194 2.882v6.246c0 1.081.429 2.117 1.194 2.882s1.801 1.194 2.882 1.194h.346c.813-.006 1.604-.259 2.27-.725s1.175-1.123 1.459-1.884l4.279-.459c1.838 1.756 4.275 2.747 6.816 2.771 1.976-.036 3.914-.553 5.645-1.508l12.135-8.66a3.22 3.22 0 0 0 1.151-3.81zm-32.013 9.934c-.01.456-.196.891-.519 1.213s-.757.508-1.213.519h-.357c-.456-.01-.891-.196-1.213-.519s-.508-.757-.519-1.213v-6.236c.01-.456.196-.891.519-1.213s.757-.508 1.213-.519h.346c.456.01.891.196 1.213.519s.508.757.519 1.213l.01 6.236zm29.7-8.436l-12.226 8.783c-.234.122-5.553 3.352-9.944-1.263l-.346-.469-4.85.469v-5.318c.927-.815 3.698-2.894 5.543-2.038a16.3 16.3 0 0 0 5.094 1.498l7.132-.112c.346 0 .346.459.346.805s0 .346-.122.459-.224.234-.346.234h-7.743v2.313h7.743a2.65 2.65 0 0 0 1.854-.693 2.61 2.61 0 0 0 .805-2.201v-.153l5.553-2.313c.571-.224 1.151-.693 1.498-.458s.357.346.01.458z"/><path fill-rule="evenodd" d="M53.311 29.83l-.764-.927-.876 1.182v.071l-.143.204-.459.703a24.01 24.01 0 0 0-1.273 2.303c-.856 1.814-1.579 4.137-1.019 6.113.227.663.589 1.273 1.062 1.79s1.048.931 1.689 1.216v.958a2.76 2.76 0 0 0-.805-.611 7.61 7.61 0 0 0-6.541-.479l-.886.296.143.866c0 .071 0 .183.061.306a4.5 4.5 0 0 0 .214.611c.283.635.672 1.218 1.151 1.722 1.141 1.223 3.169 2.435 6.663 2.649v3.586h2.038v-3.586c3.505-.214 5.522-1.426 6.674-2.649a6 6 0 0 0 1.141-1.722 3.42 3.42 0 0 0 .214-.611 1.08 1.08 0 0 0 .061-.296l.143-.703-.713-.571c-.871-.417-1.818-.653-2.783-.693a7.13 7.13 0 0 0-2.831.459 6.9 6.9 0 0 0-1.977 1.406V42.26c1.187-.547 2.128-1.517 2.639-2.72 1.019-2.425 0-5.757-2.792-9.689l-.031-.02zm-2.129 5.553a19.45 19.45 0 0 1 1.365-2.873c.71 1.139 1.268 2.365 1.661 3.648a4.78 4.78 0 0 1 .081 2.863 3.23 3.23 0 0 1-1.742 1.681 2.72 2.72 0 0 1-1.732-1.773c-.261-1.191-.132-2.434.367-3.546zm2.873 11.208a5.9 5.9 0 0 1 2.292-2.639 4.47 4.47 0 0 1 1.63-.326 4.32 4.32 0 0 1 1.416.245c-.52.937-1.926 2.425-5.339 2.72zm-6.663-1.192c-.618-.396-1.142-.921-1.538-1.539a5.35 5.35 0 0 1 3.79.52 5.98 5.98 0 0 1 1.64 2.211c-1.376-.067-2.714-.477-3.892-1.192z"/><path d="M51.233 81.211c-6.045 0-11.955-1.793-16.982-5.151s-8.944-8.132-11.258-13.718-2.919-11.731-1.739-17.66 4.09-11.376 8.365-15.65 9.721-7.186 15.65-8.365 12.075-.574 17.66 1.739 10.359 6.231 13.718 11.258 5.151 10.936 5.151 16.982c0 4.014-.791 7.989-2.327 11.697s-3.788 7.078-6.626 9.916-6.208 5.09-9.916 6.626-7.683 2.327-11.697 2.327zm0-58.687a28.12 28.12 0 0 0-25.98 17.359 28.12 28.12 0 0 0 6.096 30.646 28.12 28.12 0 0 0 30.646 6.096 28.12 28.12 0 0 0 17.359-25.98 28.15 28.15 0 0 0-28.121-28.09v-.031z"/></g><path d="M18.599 19.784l-1.63 1.966 5.461 4.534-.672.795-5.461-4.524-1.62 1.966-.662-.55 3.892-4.738.693.55zm5.013-1.743a2.6 2.6 0 0 0-.397.306c-.226.177-.39.422-.467.699a1.35 1.35 0 0 0 .039.84l2.822 3.057-.744.683-3.974-4.371.723-.662.469.499a1.57 1.57 0 0 1 .509-1.539 1.02 1.02 0 0 1 .387-.244l.632.733zm7.244.897a1.87 1.87 0 0 1-.469-.438 2.25 2.25 0 0 1-1.019 1.559 2.1 2.1 0 0 1-1.457.407 1.6 1.6 0 0 1-1.172-.723 1.67 1.67 0 0 1-.234-1.579 3.38 3.38 0 0 1 1.345-1.538l.805-.55-.265-.387a1.11 1.11 0 0 0-.734-.509 1.22 1.22 0 0 0-.502.033c-.163.046-.315.125-.446.232a1.45 1.45 0 0 0-.591.734c-.054.121-.075.254-.063.386s.059.259.134.368l-.835.581a1.41 1.41 0 0 1-.234-.886 2.19 2.19 0 0 1 .336-1.019 2.84 2.84 0 0 1 .846-.866c.453-.357 1.024-.531 1.6-.489a1.83 1.83 0 0 1 .739.269c.224.142.413.332.555.556l1.538 2.242a3.25 3.25 0 0 0 .907.948l.051.071-.835.601zm-1.824.316a1.81 1.81 0 0 0 .611-.713 1.5 1.5 0 0 0 .143-.876l-.683-1.019-.652.448c-1.019.693-1.325 1.345-.917 1.946a.91.91 0 0 0 .291.294c.118.074.252.12.392.134a1.19 1.19 0 0 0 .815-.214zm2.833-4.442a3.42 3.42 0 0 1-.326-2.262 2.04 2.04 0 0 1 1.212-1.447 2.04 2.04 0 0 1 1.854 0l-.224-.621.846-.367 2.364 5.308c.149.296.236.62.257.95s-.025.663-.135.975a2.53 2.53 0 0 1-.563.817 2.54 2.54 0 0 1-.833.539c-.394.176-.822.266-1.253.265a2.15 2.15 0 0 1-1.162-.306l.234-.764a1.96 1.96 0 0 0 1.773.081 1.56 1.56 0 0 0 .876-.846 1.59 1.59 0 0 0-.102-1.243l-.204-.459a2.1 2.1 0 0 1-1.253 1.263c-.295.139-.62.205-.946.193s-.645-.103-.929-.264c-.684-.422-1.207-1.061-1.488-1.814zm.968-.316a2.63 2.63 0 0 0 1.019 1.263 1.33 1.33 0 0 0 .635.19c.224.009.447-.039.648-.139a1.45 1.45 0 0 0 .669-.541c.163-.244.25-.531.248-.824l-1.1-2.455a1.51 1.51 0 0 0-1.62-.204 1.33 1.33 0 0 0-.54.403c-.142.178-.237.39-.275.616a2.83 2.83 0 0 0 .316 1.691zm9.108-.092a2.59 2.59 0 0 1-2.089-.296 2.89 2.89 0 0 1-1.243-1.864v-.173a3.48 3.48 0 0 1-.051-1.61 2.57 2.57 0 0 1 .642-1.274 2.49 2.49 0 0 1 1.121-.734 2.23 2.23 0 0 1 1.926.306 3.3 3.3 0 0 1 1.131 1.956l.102.397-3.882 1.019a2.1 2.1 0 0 0 .856 1.253 1.58 1.58 0 0 0 1.335.224 1.78 1.78 0 0 0 .825-.438 2.22 2.22 0 0 0 .489-.713l.723.316c-.144.413-.394.781-.724 1.067s-.731.48-1.16.563zM40.525 9.31a1.32 1.32 0 0 0-.886.673 2.16 2.16 0 0 0-.194 1.335l2.873-.713v-.082a1.93 1.93 0 0 0-.693-1.019c-.156-.116-.336-.194-.527-.227a1.25 1.25 0 0 0-.573.034zm6.643 1.314l-.581.703.153 2.038-1.019.082-.652-8.365L46.088 5l.387 5.094.489-.693 1.681-2.038 1.243-.092-2.109 2.598 2.832 3.23-1.182.092-2.262-2.568zm4.676-.52c.041-.536.205-1.055.479-1.518.234-.431.588-.785 1.019-1.019a2.64 2.64 0 0 1 1.416-.255 2.45 2.45 0 0 1 1.864 1.019 3.22 3.22 0 0 1 .54 2.282v.071a3.65 3.65 0 0 1-.479 1.518c-.23.434-.585.789-1.019 1.019a2.72 2.72 0 0 1-3.301-.754 3.24 3.24 0 0 1-.54-2.272l.02-.092zm1.019.214c-.083.557.028 1.126.316 1.61a1.55 1.55 0 0 0 2.425.224 2.77 2.77 0 0 0 .611-1.651c.076-.557-.035-1.123-.316-1.61a1.53 1.53 0 0 0-2.425-.224 2.79 2.79 0 0 0-.632 1.661l.02-.01zm8.589-1.834l-.183.632a2.18 2.18 0 0 1 1.905-.163 1.68 1.68 0 0 1 1.304 1.426 2.36 2.36 0 0 1 .937-.408 2.28 2.28 0 0 1 1.151.112 1.79 1.79 0 0 1 1.459 1.777 1.8 1.8 0 0 1-.196.801l-1.304 3.78-.958-.316 1.243-3.76a1.33 1.33 0 0 0 0-1.018c-.086-.155-.204-.29-.346-.396a1.23 1.23 0 0 0-.479-.216c-.322-.118-.677-.106-.991.033a1.33 1.33 0 0 0-.691.711l-1.243 3.719-1.019-.316 1.233-3.678a1.13 1.13 0 0 0-.794-1.62c-.266-.111-.561-.135-.841-.067s-.532.223-.718.444l-1.365 4.075-.897-.245 1.875-5.604.917.295zm7.214 9.252l2.537-4.452-.815-.459.387-.683.815.469.306-.53a1.98 1.98 0 0 1 .477-.628 1.96 1.96 0 0 1 .684-.391 1.92 1.92 0 0 1 .781-.023 1.95 1.95 0 0 1 .727.288 2.47 2.47 0 0 1 .56.428l-.459.672a2.47 2.47 0 0 0-.448-.306 1.02 1.02 0 0 0-.805-.133c-.28.111-.509.321-.642.591l-.306.54 1.1.621-.387.683-1.1-.632-2.537 4.453-.876-.509zm4.921-.601a3.63 3.63 0 0 1 1.233-1.019c.439-.215.931-.299 1.417-.243a2.56 2.56 0 0 1 1.324.559c.296.218.54.497.716.82a2.53 2.53 0 0 1 .303 1.045 3.23 3.23 0 0 1-.795 2.221v.061a3.63 3.63 0 0 1-1.213 1.019c-.433.223-.922.312-1.406.255-.495-.054-.962-.253-1.345-.571a2.49 2.49 0 0 1-.718-.813 2.46 2.46 0 0 1-.301-1.041 3.22 3.22 0 0 1 .785-2.201v-.092zm.723.723a2.56 2.56 0 0 0-.611 1.528 1.46 1.46 0 0 0 .591 1.223 1.44 1.44 0 0 0 1.335.275 2.7 2.7 0 0 0 1.396-1.019c.372-.421.588-.957.611-1.518a1.43 1.43 0 0 0-.15-.715 1.44 1.44 0 0 0-.482-.549c-.179-.151-.393-.255-.622-.303s-.467-.038-.692.028a2.72 2.72 0 0 0-1.376 1.049zm8.426 4.84c-.093-.138-.199-.268-.316-.387-.177-.227-.424-.388-.702-.46a1.3 1.3 0 0 0-.837.063l-3.057 2.873-.703-.733 4.3-4.076.672.713-.489.479a1.59 1.59 0 0 1 1.549.479c.107.11.193.237.255.377l-.672.672zm4.076 1.416l-1.151.856.662.887-.621.458-.662-.886-2.945 2.221c-.158.104-.276.259-.336.438a.59.59 0 0 0 .153.509 2.18 2.18 0 0 0 .346.346l-.662.489a2.81 2.81 0 0 1-.54-.56 1.23 1.23 0 0 1-.257-.477 1.24 1.24 0 0 1-.028-.542c.119-.398.375-.741.723-.968l2.945-2.292-.642-.866.621-.469.642.866 1.111-.825.642.815zM12.078 63.87a3.51 3.51 0 0 1 1.579-.285c.484.025.95.188 1.345.469a2.63 2.63 0 0 1 .866 1.141c.153.332.233.694.233 1.06s-.079.727-.233 1.06a3.2 3.2 0 0 1-1.773 1.538h-.061c-.49.215-1.024.313-1.559.285-.484-.017-.952-.177-1.345-.459a2.53 2.53 0 0 1-.897-1.162c-.154-.33-.234-.69-.234-1.055a2.49 2.49 0 0 1 .234-1.054 3.21 3.21 0 0 1 1.763-1.539h.082zm.285 1.019c-.532.183-.984.543-1.284 1.019a1.46 1.46 0 0 0-.21.667c-.015.236.03.472.128.688a1.47 1.47 0 0 0 .398.579 1.48 1.48 0 0 0 .621.328 2.83 2.83 0 0 0 1.742-.234 2.53 2.53 0 0 0 1.274-1.019c.119-.203.19-.431.207-.667a1.53 1.53 0 0 0-.518-1.257c-.177-.155-.388-.268-.616-.328a2.7 2.7 0 0 0-1.742.194v.031zm5.288 5.685a2.13 2.13 0 0 1 1.64 1.019c.683 1.019.428 1.956-.754 2.73l-3.271 2.119-.55-.846 3.281-2.099c.302-.163.528-.437.632-.764a1.14 1.14 0 0 0-.224-.917c-.16-.261-.399-.464-.683-.581a1.75 1.75 0 0 0-.897-.112l-3.536 2.282-.55-.846 7.051-4.554.54.856-2.68 1.712zm4.493 4.962l-.52.53a2.19 2.19 0 0 1 1.834.713c.846.917.764 1.854-.265 2.822L20.34 82.26l-.693-.734 2.863-2.669c.265-.213.44-.519.489-.856a1.15 1.15 0 0 0-.377-.856 1.46 1.46 0 0 0-.785-.459 1.69 1.69 0 0 0-.897 0l-3.036 2.924-.683-.734 4.32-4.075.601.734zm2.374 10.382a2.58 2.58 0 0 1-1.08-1.803 2.95 2.95 0 0 1 .672-2.14l.112-.143c.323-.43.742-.778 1.223-1.019a2.52 2.52 0 0 1 1.396-.296c.466.028.913.194 1.284.479a2.21 2.21 0 0 1 .988 1.671 3.3 3.3 0 0 1-.805 2.119l-.255.336-3.209-2.456a2.12 2.12 0 0 0-.448 1.426 1.58 1.58 0 0 0 .642 1.202 1.78 1.78 0 0 0 .846.377c.294.032.591.008.876-.071l.194.754c-.409.146-.849.182-1.276.105a2.49 2.49 0 0 1-1.159-.543zm3.057-4.289a1.31 1.31 0 0 0-.511-.251 1.35 1.35 0 0 0-.569-.014 2.12 2.12 0 0 0-1.162.683l2.354 1.783.051-.061a1.9 1.9 0 0 0 .387-1.202 1.27 1.27 0 0 0-.51-.917l-.041-.02zm8.151 6.449a5.02 5.02 0 0 1-1.467-1.61c-.108-.24-.164-.501-.164-.764s.056-.524.164-.764c.108-.28.281-.531.504-.733a1.92 1.92 0 0 1 .78-.428c.677-.191 1.4-.133 2.038.163a3.19 3.19 0 0 1 1.233.836c.304.332.512.741.601 1.182a2.24 2.24 0 0 1-.132 1.263l-1.019-.397a1.42 1.42 0 0 0 0-1.222c-.208-.414-.564-.735-.998-.897-.39-.188-.833-.235-1.253-.132a1.1 1.1 0 0 0-.754.713 1.02 1.02 0 0 0 .071.917 4.02 4.02 0 0 0 1.07 1.09c.448.335.855.721 1.212 1.151.239.297.403.646.479 1.019a2.14 2.14 0 0 1-.143 1.08 1.85 1.85 0 0 1-.501.733c-.224.2-.492.344-.783.418a3.17 3.17 0 0 1-2.038-.214 3.73 3.73 0 0 1-1.437-.805c-.34-.331-.58-.751-.693-1.212a2.1 2.1 0 0 1 .102-1.294l1.019.397c-.087.196-.125.411-.113.625a1.35 1.35 0 0 0 .184.608 2.21 2.21 0 0 0 1.162.917 2.04 2.04 0 0 0 1.304.163 1.07 1.07 0 0 0 .754-.693 1.02 1.02 0 0 0 0-1.019c-.328-.429-.728-.798-1.182-1.09zm6.633 4.911a1.47 1.47 0 0 0 1.019-.132 1.12 1.12 0 0 0 .377-.292 1.13 1.13 0 0 0 .224-.421l.937.194c-.094.337-.281.641-.54.876a2.42 2.42 0 0 1-1.019.55c-.385.092-.786.092-1.172 0-.354-.057-.691-.191-.987-.394s-.543-.468-.724-.778a3.13 3.13 0 0 1-.255-2.303v-.163a3.3 3.3 0 0 1 .622-1.437c.276-.384.658-.678 1.1-.846a2.64 2.64 0 0 1 1.437-.082c.597.105 1.133.433 1.498.917a2.17 2.17 0 0 1 .377 1.651l-.937-.183c.051-.357-.033-.72-.234-1.019-.213-.287-.526-.483-.876-.55-.221-.056-.453-.058-.675-.005s-.428.16-.599.31a2.57 2.57 0 0 0-.744 1.477v.194c-.144.537-.108 1.105.102 1.62.096.214.244.401.431.544s.407.236.639.271zm5.97-3.688a2.12 2.12 0 0 1 1.773-.764c1.243 0 1.854.764 1.814 2.17l-.122 3.902h-1.019l.122-3.912a1.34 1.34 0 0 0-.265-.958 1.17 1.17 0 0 0-.876-.326c-.31-.019-.617.064-.876.234a1.88 1.88 0 0 0-.601.662l-.133 4.208h-1.019l.326-8.436h1.019l-.143 3.22zm10.189 4.574a2.02 2.02 0 0 1-.224-.601 2.26 2.26 0 0 1-1.559 1.019 2.1 2.1 0 0 1-1.498-.285 1.63 1.63 0 0 1-.734-1.151 1.71 1.71 0 0 1 .489-1.518 3.36 3.36 0 0 1 1.885-.784l1.019-.143-.061-.459a1.19 1.19 0 0 0-.438-.795 1.27 1.27 0 0 0-.491-.195 1.29 1.29 0 0 0-.528.021 1.47 1.47 0 0 0-.856.397.81.81 0 0 0-.221.324.82.82 0 0 0-.044.389l-1.019.143c-.038-.308.026-.619.183-.886a2.18 2.18 0 0 1 .754-.774c.345-.212.73-.351 1.131-.408a2.41 2.41 0 0 1 1.661.275 1.87 1.87 0 0 1 .536.567 1.86 1.86 0 0 1 .258.737l.387 2.69a3.35 3.35 0 0 0 .397 1.253v.092l-1.029.092zm-1.773-.53a1.69 1.69 0 0 0 .856-.367c.247-.179.429-.433.52-.723l-.173-1.202-.785.122c-1.223.173-1.783.621-1.681 1.335.015.14.061.275.135.395a.94.94 0 0 0 .293.297 1.19 1.19 0 0 0 .836.173v-.031zm4.524-3.056c-.283-.73-.312-1.534-.081-2.282.108-.3.285-.571.517-.791a2.04 2.04 0 0 1 .818-.473 2.04 2.04 0 0 1 1.783.153l-.968-2.924.958-.316 2.659 7.947-.886.296-.275-.632a2.04 2.04 0 0 1-1.365 1.233c-.308.107-.637.139-.959.093a2.04 2.04 0 0 1-.895-.358 3.52 3.52 0 0 1-1.304-1.875v-.071zm1.019-.214a2.66 2.66 0 0 0 .886 1.365 1.39 1.39 0 0 0 .615.245c.222.031.448.006.658-.071a1.5 1.5 0 0 0 1.019-1.263l-.846-2.588a1.46 1.46 0 0 0-.738-.41c-.281-.061-.573-.039-.842.064-.218.059-.418.173-.578.332a1.31 1.31 0 0 0-.339.575c-.135.585-.085 1.197.143 1.752h.02zm9.832-2.822a.73.73 0 0 0-.233-.278c-.1-.072-.216-.116-.338-.13a2.9 2.9 0 0 0-1.131.163 4.46 4.46 0 0 1-1.263.234c-.29.018-.58-.034-.846-.153-.233-.127-.421-.323-.54-.56a1.52 1.52 0 0 1 0-1.376 2.75 2.75 0 0 1 2.771-1.467 1.62 1.62 0 0 1 1.182.866l-.897.479a.95.95 0 0 0-.276-.301c-.113-.079-.241-.133-.377-.157a1.56 1.56 0 0 0-1.559.784c-.058.108-.088.229-.088.352s.03.243.088.352a.62.62 0 0 0 .52.346 3.85 3.85 0 0 0 1.09-.194c.41-.126.835-.201 1.263-.224a1.79 1.79 0 0 1 .886.163 1.44 1.44 0 0 1 .581.601 1.49 1.49 0 0 1 0 1.416 2.66 2.66 0 0 1-1.212 1.202c-.378.216-.799.345-1.233.377-.372.032-.745-.038-1.08-.204a1.66 1.66 0 0 1-.734-.713l.886-.479a1.02 1.02 0 0 0 .744.509 1.55 1.55 0 0 0 1.019-.214 1.59 1.59 0 0 0 .693-.642.71.71 0 0 0 .149-.365c.014-.133-.009-.268-.068-.389zm.57-7.305l.846 1.151.886-.652.469.632-.897.652 2.18 2.975c.095.162.248.282.428.336a.59.59 0 0 0 .51-.153 2.52 2.52 0 0 0 .357-.336l.479.662c-.163.203-.351.385-.56.54-.141.115-.304.2-.48.247a1.28 1.28 0 0 1-.539.028 1.71 1.71 0 0 1-.958-.733l-2.17-2.955-.866.642-.469-.652.866-.632-.866-1.151.785-.601zm4.84 1.773a3.54 3.54 0 0 1-.856-1.355 2.63 2.63 0 0 1-.071-1.426c.118-.477.373-.909.734-1.243a2.5 2.5 0 0 1 .902-.608c.342-.134.709-.191 1.075-.166a3.26 3.26 0 0 1 2.038 1.019h.051a3.65 3.65 0 0 1 .846 1.335 2.53 2.53 0 0 1 .071 1.427 2.64 2.64 0 0 1-.734 1.263c-.253.265-.561.471-.903.603a2.49 2.49 0 0 1-1.074.161 3.2 3.2 0 0 1-2.038-1.019l-.041.01zm.805-.632a2.55 2.55 0 0 0 1.437.815c.237.037.479.017.706-.059a1.49 1.49 0 0 0 .598-.379c.176-.16.309-.361.387-.585a1.43 1.43 0 0 0 .061-.699 2.79 2.79 0 0 0-.856-1.528c-.379-.416-.883-.695-1.437-.795a1.54 1.54 0 0 0-1.763 1.752 2.78 2.78 0 0 0 .866 1.477zm7.111-3.464l-4.075-3.057-.56.744-.621-.469.56-.744-.489-.367a2.04 2.04 0 0 1-.866-1.284 1.93 1.93 0 0 1 .075-.774 1.94 1.94 0 0 1 .374-.683c.14-.191.308-.359.499-.499l.611.53c-.135.124-.258.26-.367.408a1.02 1.02 0 0 0-.224.774 1.14 1.14 0 0 0 .499.713l.489.377.764-1.019.621.469-.754 1.019 4.075 3.057-.611.805zm2.854-4.127L83.878 70.9l-.469.805-.672-.397.469-.805-.52-.306a1.8 1.8 0 0 1-.734-2.689 3.15 3.15 0 0 1 .438-.55l.723.428a2.41 2.41 0 0 0-.316.438 1.02 1.02 0 0 0-.143.805 1.16 1.16 0 0 0 .581.642l.54.316.632-1.08.672.387-.632 1.09 4.422 2.598-.571.917zm3.249-6.255a2.56 2.56 0 0 1-.571.912c-.253.26-.558.463-.896.596a2.94 2.94 0 0 1-1.131.173c-.385-.017-.762-.111-1.111-.275l-.173-.071a3.69 3.69 0 0 1-1.325-.907 2.74 2.74 0 0 1-.642-1.304c-.087-.456-.037-.927.143-1.355a2.19 2.19 0 0 1 1.345-1.345 3.28 3.28 0 0 1 2.252.234l.387.163-1.528 3.699a2.13 2.13 0 0 0 1.498.061 1.62 1.62 0 0 0 1.019-.937 1.82 1.82 0 0 0 .143-.927c-.046-.286-.142-.563-.285-.815l.672-.387c.255.358.408.777.444 1.215s-.047.877-.241 1.271zm-4.942-1.895c-.078.177-.118.367-.118.56s.04.384.118.56a2.2 2.2 0 0 0 .958.948l1.131-2.741h-.071a2.04 2.04 0 0 0-1.263-.071 1.26 1.26 0 0 0-.754.744z" fill="#000"/></svg>