<svg xmlns="http://www.w3.org/2000/svg" width="43" height="43" fill="none" xmlns:v="https://vecta.io/nano"><path d="M41.444 34.537a1.5 1.5 0 1 0 0-3v3zm-5.093 0h5.093v-3h-5.093v3z" fill="#94a880"/><path d="M12.278 33.037h19.445M19.685 21H7.924c-3.477 0-6.295 2.694-6.295 6.018s2.542 6.018 6.019 6.018M36.363 8.963c2.767 0 5.082 2.97 5.082 5.975 0 3.356-2.717 6.062-6.088 6.062H24.315M12.278 8.963h19.445" stroke="#94a880" stroke-width="3" stroke-miterlimit="10"/><path d="M1.63 7.463a1.5 1.5 0 1 0 0 3v-3zm0 3h6.019v-3H1.63v3zm33.907-8.907a1.5 1.5 0 1 0-3 0h3zm0 17.13V1.556h-3v17.13h3z" fill="#94a880"/><path d="M22 35.352c0 3.238 3.241 5.093 6.018 5.093 3.324 0 6.018-2.624 6.018-5.862V23.315M22 11.278v19.444M9.963 18.685V7.565c0-3.327 2.686-6.009 6.018-6.009S22 3.87 22 6.648" stroke="#94a880" stroke-width="3" stroke-miterlimit="10"/><path d="M8.463 41.37a1.5 1.5 0 0 0 3 0h-3zm3 0V23.315h-3V41.37h3z" fill="#94a880"/></svg>