<svg xmlns="http://www.w3.org/2000/svg" width="101" height="101" fill="none" xmlns:v="https://vecta.io/nano"><path d="M67.095 61.023a1.27 1.27 0 0 0 1.268-1.268 1.27 1.27 0 0 0-1.268-1.268v2.536zm-4.169 0h4.169v-2.536h-4.22l.051 2.536zm-3.844-2.536H43.146v2.536h15.936v-2.536zm-19.73 2.536c-.818.015-1.631-.135-2.39-.441s-1.448-.762-2.027-1.341a6.1 6.1 0 0 1-1.341-2.027c-.307-.759-.456-1.572-.441-2.39a6.32 6.32 0 0 1 6.421-6.198h9.636v2.536h-9.636c-.499-.019-.996.061-1.464.235s-.896.439-1.261.779a3.77 3.77 0 0 0-.865 1.204c-.206.455-.32.945-.336 1.444a3.58 3.58 0 0 0 3.662 3.662l.041 2.536zm22.671-9.86h-9.018v-2.536h9.018a3.71 3.71 0 0 0 3.713-3.702c0-1.826-1.43-3.631-2.891-3.631v-2.536c2.891 0 5.427 2.881 5.427 6.167a6.25 6.25 0 0 1-6.248 6.238zm-2.941-12.405H43.146v2.536h15.936v-2.536zm-24.66 0a1.27 1.27 0 0 0-1.268 1.268 1.27 1.27 0 0 0 1.268 1.268v-2.536zm0 2.536h4.93v-2.536h-4.93v2.536zm27.824-7.334a1.27 1.27 0 0 0-1.268-1.268 1.27 1.27 0 0 0-1.268 1.268h2.536zm0 14.039V33.96H59.71v14.039h2.536zm-6.197 19.1c-2.982 0-6.208-2.079-6.208-5.447h2.536c0 2.029 2.191 2.911 3.672 2.911a3.6 3.6 0 0 0 3.364-2.166 3.61 3.61 0 0 0 .297-1.373v-9.231h2.536v9.231a6.15 6.15 0 0 1-1.843 4.319c-1.161 1.139-2.728 1.771-4.354 1.757zm-3.672-25.166h-2.536v15.936h2.536V41.933zm-9.86 6.065h-2.536v-9.129a6.21 6.21 0 0 1 6.198-6.198c3.418 0 6.198 2.445 6.198 5.447h-2.526c0-1.582-1.674-2.911-3.662-2.911a3.66 3.66 0 0 0-3.662 3.662l-.01 9.129zm-2.536 18.594a1.27 1.27 0 0 0 1.268 1.268 1.27 1.27 0 0 0 1.268-1.268h-2.536zm2.536 0v-14.8h-2.536v14.8h2.536zm8.135 14.201a30.43 30.43 0 0 1-21.517-51.949 30.43 30.43 0 0 1 51.948 21.517 30.43 30.43 0 0 1-30.431 30.431zm0-58.427a28 28 0 0 0-15.554 4.718c-4.604 3.076-8.192 7.449-10.311 12.564a28 28 0 0 0 6.069 30.511 27.99 27.99 0 0 0 14.335 7.662 28 28 0 0 0 16.176-1.593 27.99 27.99 0 0 0 12.564-10.311 28 28 0 0 0 4.718-15.554 28.02 28.02 0 0 0-8.209-19.787 28.03 28.03 0 0 0-19.787-8.209z" fill="#94a880"/><g fill="#000"><path d="M18.872 30.288l-.487.923-3.236-1.714-1.816 3.55 3.236 1.714-.487.923-6.999-3.702.487-.923 3.043 1.593 1.866-3.53-3.043-1.593.497-.923 6.938 3.682zm-4.108-6.959a.58.58 0 0 1-.223-.375.58.58 0 0 1 .152-.446.59.59 0 0 1 .416-.244.61.61 0 0 1 .416.152.55.55 0 0 1 .061.822.61.61 0 0 1-.416.244.58.58 0 0 1-.406-.152zm1.501-1.795a.6.6 0 0 1-.233-.375.56.56 0 0 1 .152-.446.61.61 0 0 1 .416-.244.59.59 0 0 1 .416.152.57.57 0 0 1 .223.375.55.55 0 0 1-.162.446.57.57 0 0 1-.406.244.58.58 0 0 1-.406-.152zm1.38 5.315a3.47 3.47 0 0 1-1.014-1.248c-.194-.439-.261-.924-.193-1.4a2.65 2.65 0 0 1 .598-1.309 2.48 2.48 0 0 1 1.877-.964c.806-.009 1.585.289 2.181.832l.051.051a3.46 3.46 0 0 1 1.014 1.227c.212.438.289.928.223 1.41a2.56 2.56 0 0 1-.598 1.319 2.44 2.44 0 0 1-1.877.964c-.803.009-1.579-.288-2.171-.832l-.091-.051zm.73-.7a2.54 2.54 0 0 0 1.501.649 1.48 1.48 0 0 0 1.238-.568 1.43 1.43 0 0 0 .304-1.319 2.69 2.69 0 0 0-1.014-1.42c-.414-.378-.943-.606-1.501-.649a1.48 1.48 0 0 0-.692.126c-.217.097-.408.245-.556.431a1.46 1.46 0 0 0-.304 1.309 2.71 2.71 0 0 0 1.055 1.44h-.03zm7.577-4.788a1.48 1.48 0 0 0 .507-.862 1.18 1.18 0 0 0-.001-.477 1.17 1.17 0 0 0-.192-.436l.73-.609c.208.277.332.608.355.954a2.43 2.43 0 0 1-.193 1.119 2.44 2.44 0 0 1-.679.91c-.263.245-.576.428-.918.537s-.704.14-1.06.092a3.2 3.2 0 0 1-1.958-1.217l-.081-.101a3.5 3.5 0 0 1-.741-1.369c-.132-.45-.132-.929 0-1.38a2.53 2.53 0 0 1 .832-1.187 2.34 2.34 0 0 1 1.633-.609 2.16 2.16 0 0 1 1.532.72l-.73.619a1.37 1.37 0 0 0-1.907-.101 1.44 1.44 0 0 0-.568 1.166 2.65 2.65 0 0 0 .71 1.481l.132.152c.331.444.797.768 1.329.923a1.44 1.44 0 0 0 1.268-.325zm1.786-6.826a2.09 2.09 0 0 1 1.085-1.582c1.065-.629 1.968-.345 2.678.862l1.968 3.347-.872.507-1.958-3.358a1.43 1.43 0 0 0-.73-.659c-.158-.036-.322-.038-.481-.007a1.15 1.15 0 0 0-.442.189 1.46 1.46 0 0 0-.609.659c-.122.277-.175.58-.152.883l2.12 3.621-.862.507-4.23-7.202.872-.507 1.613 2.739zm10.173-.852a.77.77 0 0 0-.517-.487 2.81 2.81 0 0 0-1.136 0 5.23 5.23 0 0 1-1.268.061 1.78 1.78 0 0 1-.811-.274 1.34 1.34 0 0 1-.467-.629 1.51 1.51 0 0 1 .142-1.339c.295-.48.752-.84 1.288-1.014.541-.226 1.144-.255 1.704-.081.234.082.447.216.623.391a1.66 1.66 0 0 1 .392.623l-.953.355c-.048-.128-.125-.244-.226-.337a.88.88 0 0 0-.353-.2 1.22 1.22 0 0 0-.923 0 1.35 1.35 0 0 0-.72.517.78.78 0 0 0-.124.374c-.009.133.017.266.074.387a.64.64 0 0 0 .467.416 3.87 3.87 0 0 0 1.096 0 5.81 5.81 0 0 1 1.288-.051c.3.023.59.12.842.284a1.36 1.36 0 0 1 .497.669 1.51 1.51 0 0 1-.132 1.319c-.325.482-.804.84-1.359 1.014a2.84 2.84 0 0 1-1.258.203c-.365-.02-.717-.143-1.014-.355a1.63 1.63 0 0 1-.629-.801l.943-.345c.056.145.144.276.259.381a1.02 1.02 0 0 0 .401.227 1.55 1.55 0 0 0 1.014-.081c.308-.093.58-.277.781-.527a.74.74 0 0 0 .081-.7zm2.861-6.726l.314 1.39 1.075-.243.172.761-1.075.243.812 3.56a.8.8 0 0 0 .264.487.63.63 0 0 0 .527.061c.156-.038.306-.096.446-.172l.183.791a3.09 3.09 0 0 1-.73.284 1.26 1.26 0 0 1-1.085-.183c-.305-.262-.513-.619-.588-1.014l-.801-3.56-1.014.233-.172-.751 1.014-.243-.315-1.39.974-.254zm6.695 6.482c-.363.046-.731.015-1.081-.092s-.673-.286-.948-.527a2.91 2.91 0 0 1-.923-2.029v-.183a3.54 3.54 0 0 1 .264-1.623c.172-.451.463-.847.842-1.146a2.35 2.35 0 0 1 1.187-.467 2.21 2.21 0 0 1 1.836.609 3.27 3.27 0 0 1 .812 2.1v.416l-3.976.335a2.09 2.09 0 0 0 .629 1.359 1.58 1.58 0 0 0 1.268.426c.316-.014.621-.116.883-.294.239-.168.442-.382.598-.629l.649.426c-.196.378-.486.699-.844.93a2.45 2.45 0 0 1-1.195.388zm-.568-5.244a1.35 1.35 0 0 0-1.014.527A2.11 2.11 0 0 0 45.479 10l2.932-.243v-.071c-.034-.432-.212-.839-.507-1.156a1.29 1.29 0 0 0-1.004-.335zm14.434 2.739a4.79 4.79 0 0 1-.741 1.866c-.312.468-.747.84-1.258 1.075l1.166 1.359-.832.507-1.369-1.633a3.32 3.32 0 0 1-.832-.061 3.05 3.05 0 0 1-1.532-.781 2.94 2.94 0 0 1-.842-1.501 4.66 4.66 0 0 1 0-2.029l.112-.558a4.87 4.87 0 0 1 .73-1.887 2.93 2.93 0 0 1 3.043-1.227c.582.11 1.121.385 1.552.791a3.04 3.04 0 0 1 .842 1.522 4.87 4.87 0 0 1 0 2.029l-.041.527zm-.923-.71a3.6 3.6 0 0 0-.122-2.252 1.85 1.85 0 0 0-1.41-1.014 1.82 1.82 0 0 0-1.663.436 3.42 3.42 0 0 0-1.014 1.937l-.122.568a3.58 3.58 0 0 0 .142 2.211 2.03 2.03 0 0 0 3.043.659 3.53 3.53 0 0 0 1.014-1.958l.132-.588zm5.58 5.863a2.13 2.13 0 0 1-1.856 0c-.247-.082-.473-.214-.666-.389s-.346-.388-.45-.626c-.152-.562-.094-1.161.162-1.684l1.481-3.621.923.385-1.461 3.51c-.345.822-.183 1.369.487 1.653a1.51 1.51 0 0 0 1.745-.203l1.653-3.956.923.396-2.262 5.427-.883-.375.203-.517zm5.467 3.753a2.03 2.03 0 0 1 .213-.599 2.24 2.24 0 0 1-1.806-.284 2.03 2.03 0 0 1-.933-1.187c-.068-.226-.085-.464-.05-.697s.122-.456.253-.652a1.65 1.65 0 0 1 1.36-.822c.693-.003 1.369.218 1.927.629l.822.527.254-.386c.091-.126.154-.27.185-.422a1.12 1.12 0 0 0-.003-.461 1.23 1.23 0 0 0-.609-.761 1.5 1.5 0 0 0-.913-.264.8.8 0 0 0-.659.365l-.852-.548a1.37 1.37 0 0 1 .72-.548 2.03 2.03 0 0 1 1.065-.091 2.92 2.92 0 0 1 1.126.436c.48.291.84.744 1.014 1.278a1.8 1.8 0 0 1 .039.779 1.81 1.81 0 0 1-.293.723l-1.41 2.272c-.25.361-.425.768-.517 1.197v.071l-.933-.558zm-1.014-1.542a1.68 1.68 0 0 0 .883.274 1.42 1.42 0 0 0 .862-.203l.649-1.014-.669-.426c-1.014-.659-1.755-.69-2.14-.081-.081.113-.136.243-.159.38a.9.9 0 0 0 .027.411 1.24 1.24 0 0 0 .568.659h-.02zm4.107 3.976l-.771-.649 5.376-6.39.771.639-5.376 6.401zm2.252 2.11l-.71-.71 4.189-4.169.72.7-4.199 4.179zm4.473-6.086c.05-.057.11-.103.178-.136s.142-.052.217-.056a.66.66 0 0 1 .629.629.56.56 0 0 1-.183.396.57.57 0 0 1-.396.193.62.62 0 0 1-.426-.193c-.063-.052-.114-.117-.149-.191a.55.55 0 0 1-.054-.235.6.6 0 0 1 .203-.365l-.02-.041zm3.389 3.926l-1.096.903.7.852-.598.497-.7-.852-2.81 2.333a.83.83 0 0 0-.314.457.6.6 0 0 0 .183.497 2.39 2.39 0 0 0 .355.325l-.629.517c-.215-.146-.406-.324-.568-.527a1.25 1.25 0 0 1-.345-1.014 1.78 1.78 0 0 1 .68-1.014l2.79-2.343-.69-.822.599-.497.69.822 1.085-.913.669.781zm-2.049 9.859a2.1 2.1 0 0 1 .456-.446 2.27 2.27 0 0 1-1.501-1.014 2.09 2.09 0 0 1-.274-1.501 1.55 1.55 0 0 1 .771-1.126 1.64 1.64 0 0 1 .772-.28c.277-.027.556.017.811.128a3.31 3.31 0 0 1 1.41 1.43l.507.832.396-.243a1.11 1.11 0 0 0 .353-.297c.096-.123.166-.263.205-.413a1.3 1.3 0 0 0-.223-.953 1.52 1.52 0 0 0-.7-.629.81.81 0 0 0-.751 0l-.507-.842a1.37 1.37 0 0 1 .893-.183 2.03 2.03 0 0 1 1.014.386 2.72 2.72 0 0 1 .822.872c.331.472.473 1.052.396 1.623-.046.259-.148.504-.299.72a1.81 1.81 0 0 1-.573.528l-2.313 1.41a3.26 3.26 0 0 0-1.014.852h-.081l-.568-.852zm-.223-1.795c.166.27.4.49.68.639a1.49 1.49 0 0 0 .862.193l1.014-.629-.416-.68c-.676-1.048-1.305-1.386-1.887-1.014a.91.91 0 0 0-.309.27.9.9 0 0 0-.158.379 1.22 1.22 0 0 0 .213.842zm5.072-4.615a.54.54 0 0 1 .426-.092.68.68 0 0 1 .467.761.6.6 0 0 1-.274.345.59.59 0 0 1-.426.081.68.68 0 0 1-.467-.751c.006-.072.026-.143.059-.207a.55.55 0 0 1 .134-.168l.081.03zm1.207 2.029a.57.57 0 0 1 .436-.091.55.55 0 0 1 .219.101.56.56 0 0 1 .156.183.6.6 0 0 1 .091.477.67.67 0 0 1-.284.345.58.58 0 0 1-.426.081.6.6 0 0 1-.375-.294.59.59 0 0 1-.096-.223.58.58 0 0 1 .004-.243.56.56 0 0 1 .07-.221c.038-.068.091-.127.154-.174l.051.061zm2.485 5.264l-1.308.568.436 1.014-.71.304-.436-1.014-3.358 1.45a.79.79 0 0 0-.426.345.61.61 0 0 0 0 .527 2.67 2.67 0 0 0 .254.406l-.74.325a3.06 3.06 0 0 1-.406-.659 1.23 1.23 0 0 1 0-1.096c.197-.359.512-.639.893-.791l3.347-1.44-.426-1.014.72-.314.426 1.014 1.298-.558.436.933zM11.224 62.95a3.49 3.49 0 0 1 2.262-.203 2.03 2.03 0 0 1 1.349 1.288 2.03 2.03 0 0 1-.091 1.775l2.86-1.014.355.943-7.8 2.881-.325-.862.568-.264a2.03 2.03 0 0 1-1.268-1.319 2.03 2.03 0 0 1 .203-1.846 3.54 3.54 0 0 1 1.826-1.359l.061-.02zm.243 1.014a2.62 2.62 0 0 0-1.319.933 1.32 1.32 0 0 0-.132 1.258 1.45 1.45 0 0 0 1.288 1.014l2.526-.933a1.47 1.47 0 0 0 .294-1.582 1.36 1.36 0 0 0-.933-.883 2.95 2.95 0 0 0-1.724.152v.041z"/><path d="M13.861 74.301a2.11 2.11 0 0 1-1.461-1.126 1.82 1.82 0 0 1-.298-.727c-.045-.261-.034-.529.035-.785.215-.54.618-.983 1.136-1.248l3.287-1.937.507.862-3.256 1.927c-.771.446-1.014 1.014-.599 1.613a1.47 1.47 0 0 0 1.511.872l3.682-2.171.507.862-5.072 3.043-.507-.872.527-.314zm7.344 2.536a2.86 2.86 0 0 0-.274-.406 1.32 1.32 0 0 0-1.511-.497l-3.246 2.607-.629-.781 4.565-3.682.619.761-.517.436a1.56 1.56 0 0 1 1.481.598 1.01 1.01 0 0 1 .223.396l-.71.568zm-.243 5.782a1.4 1.4 0 0 0 .903.406 1.13 1.13 0 0 0 .872-.284l.69.649c-.249.238-.563.397-.903.456a2.24 2.24 0 0 1-1.126 0c-.377-.114-.724-.312-1.014-.578-.27-.233-.486-.523-.629-.849a2.4 2.4 0 0 1-.202-1.037c.075-.779.436-1.502 1.014-2.029l.112-.122a3.59 3.59 0 0 1 1.268-.893c.433-.178.91-.224 1.369-.132.478.103.918.338 1.268.68a2.34 2.34 0 0 1 .781 1.562 2.11 2.11 0 0 1-.538 1.593l-.69-.649a1.44 1.44 0 0 0 .325-1.014 1.36 1.36 0 0 0-.446-.923 1.41 1.41 0 0 0-1.238-.406 2.56 2.56 0 0 0-1.4.872l-.122.132a2.55 2.55 0 0 0-.771 1.42 1.38 1.38 0 0 0 .477 1.146zm6.988.02a2.11 2.11 0 0 1 1.897.274c1.014.68 1.177 1.603.416 2.779l-2.13 3.226-.842-.548 2.14-3.236a1.42 1.42 0 0 0 .274-.943 1.19 1.19 0 0 0-.579-.741 1.4 1.4 0 0 0-.852-.254c-.304.009-.601.096-.862.254l-2.292 3.49-.842-.558 4.585-6.938.832.548-1.745 2.647zm12.356 11.168l-1.014-.304-2.029-6.969-1.765 5.812-1.014-.304 2.303-7.547 1.014.304 2.029 6.999 1.775-5.843 1.014.304-2.313 7.547zm6.998.943c-.064-.203-.092-.416-.081-.629a2.25 2.25 0 0 1-1.734.558 2.03 2.03 0 0 1-1.369-.629 1.57 1.57 0 0 1-.359-.596c-.074-.223-.097-.46-.067-.692.014-.276.096-.543.239-.779s.344-.432.582-.57a3.34 3.34 0 0 1 2.029-.314l1.014.091v-.456a1.12 1.12 0 0 0-.023-.454 1.15 1.15 0 0 0-.2-.408 1.29 1.29 0 0 0-.893-.396 1.39 1.39 0 0 0-.923.183.76.76 0 0 0-.426.619l-1.014-.101a1.39 1.39 0 0 1 .396-.812 2.15 2.15 0 0 1 .903-.568 2.86 2.86 0 0 1 1.187-.122c.574.024 1.12.258 1.532.659.174.194.305.423.383.671a1.84 1.84 0 0 1 .073.769l-.254 2.688a3.21 3.21 0 0 0 .081 1.298v.091l-1.075-.101zm-1.582-.923a1.71 1.71 0 0 0 .913-.162 1.48 1.48 0 0 0 .669-.568l.112-1.197-.781-.071c-1.217-.122-1.866.172-1.937.893a.89.89 0 0 0 .032.409c.042.132.115.252.212.352a1.24 1.24 0 0 0 .781.345zm6.36-6.339l.061 1.42 1.096-.051v.781h-1.085l.162 3.642a.8.8 0 0 0 .162.517.64.64 0 0 0 .507.152c.161-.009.322-.036.477-.081v.801a2.9 2.9 0 0 1-.761.142 1.24 1.24 0 0 1-.547-.063 1.26 1.26 0 0 1-.467-.292 1.72 1.72 0 0 1-.396-1.136l-.162-3.631h-1.065v-.771h1.065l-.071-1.41 1.024-.02zm7.365 5.751a2.03 2.03 0 0 1-1.552 1.014 1.84 1.84 0 0 1-.785.035 1.82 1.82 0 0 1-.727-.298c-.436-.383-.714-.915-.781-1.491l-.68-3.763 1.014-.193.7 3.723c.173.872.609 1.237 1.319 1.106a1.5 1.5 0 0 0 1.339-1.126l-.862-4.139 1.014-.183 1.096 5.751-.933.183-.162-.619zm4.869-6.045l-.477.122a1.33 1.33 0 0 0-1.014 1.237l1.359 3.926-.943.325-1.917-5.528.923-.325.233.639a1.58 1.58 0 0 1 1.065-1.207 1.15 1.15 0 0 1 .446-.071l.325.882zm4.067 3.611l-2.211-4.575-.832.396-.335-.69.832-.406-.264-.538a2.03 2.03 0 0 1-.172-1.532c.087-.24.222-.46.397-.646a1.9 1.9 0 0 1 .618-.439c.209-.101.431-.173.659-.213l.304.751a2.55 2.55 0 0 0-.507.183c-.128.054-.244.135-.34.236a1.02 1.02 0 0 0-.218.352 1.14 1.14 0 0 0 .112.852l.274.558 1.126-.548.335.7-1.065.548 2.211 4.575-.923.436zm7.161-4.169a2.09 2.09 0 0 1-.456-.436 2.26 2.26 0 0 1-1.015 1.531 2.1 2.1 0 0 1-1.461.396c-.233-.029-.458-.109-.657-.233s-.37-.291-.499-.487c-.161-.225-.265-.486-.302-.76a1.69 1.69 0 0 1 .089-.813c.274-.634.743-1.163 1.339-1.511l.811-.548-.213-.375a1.14 1.14 0 0 0-.72-.527 1.31 1.31 0 0 0-.943.264 1.52 1.52 0 0 0-.599.73.78.78 0 0 0 .071.74l-.842.568a1.4 1.4 0 0 1-.213-.882 2.15 2.15 0 0 1 .335-1.014 2.81 2.81 0 0 1 .842-.852 2.3 2.3 0 0 1 1.592-.406 1.78 1.78 0 0 1 .725.27 1.79 1.79 0 0 1 .543.552l1.511 2.221a3.41 3.41 0 0 0 .882.954v.071l-.822.548zm-1.806.294c.264-.172.474-.415.609-.7a1.48 1.48 0 0 0 .152-.872l-.669-1.014-.649.436c-1.014.69-1.329 1.329-.923 1.927a.89.89 0 0 0 .669.436c.287.029.576-.046.811-.213zm6.331-6.218a.76.76 0 0 0-.659-.243 2.8 2.8 0 0 0-1.014.456 5.27 5.27 0 0 1-1.146.558 1.81 1.81 0 0 1-.852.061 1.25 1.25 0 0 1-.669-.396 1.52 1.52 0 0 1-.356-.601c-.07-.225-.087-.464-.05-.697a2.42 2.42 0 0 1 .781-1.44c.404-.418.943-.68 1.522-.741.251-.025.505.008.741.098s.448.233.618.419l-.73.7a.93.93 0 0 0-.34-.219c-.128-.047-.265-.066-.401-.055a1.33 1.33 0 0 0-.842.396 1.32 1.32 0 0 0-.446.761.76.76 0 0 0 .203.669.6.6 0 0 0 .588.193 3.51 3.51 0 0 0 1.014-.456 4.91 4.91 0 0 1 1.156-.558 1.8 1.8 0 0 1 .882-.071 1.32 1.32 0 0 1 .71.426 1.46 1.46 0 0 1 .416 1.339c-.126.581-.449 1.1-.913 1.471a2.92 2.92 0 0 1-1.014.68 1.94 1.94 0 0 1-1.096.081c-.358-.062-.686-.24-.933-.507l.73-.69a1.02 1.02 0 0 0 .386.25 1.01 1.01 0 0 0 .456.054 1.87 1.87 0 0 0 .911-.423c.259-.221.453-.51.56-.835a.71.71 0 0 0-.213-.68zm5.203-3.591c-.202.299-.466.55-.774.738a2.5 2.5 0 0 1-1.011.348 2.86 2.86 0 0 1-2.12-.649l-.152-.101a3.61 3.61 0 0 1-1.014-1.197 2.62 2.62 0 0 1-.304-1.39 2.39 2.39 0 0 1 .385-1.278 2.21 2.21 0 0 1 1.663-1.014 3.25 3.25 0 0 1 2.11.781l.335.243-2.363 3.185a2.1 2.1 0 0 0 1.42.436 1.65 1.65 0 0 0 .655-.21c.201-.115.375-.272.512-.46a1.83 1.83 0 0 0 .365-.852c.023-.29-.004-.582-.081-.862l.751-.203c.168.409.222.857.156 1.294a2.45 2.45 0 0 1-.532 1.191zm-4.291-3.043a1.36 1.36 0 0 0-.254 1.075 2.2 2.2 0 0 0 .69 1.146l1.755-2.353h-.061c-.344-.258-.767-.39-1.197-.375a1.28 1.28 0 0 0-.523.157 1.27 1.27 0 0 0-.41.361v-.01zm3.815-5.863c-.098.132-.186.271-.264.416a1.31 1.31 0 0 0 .101 1.572l3.652 2.029-.477.882-5.153-2.8.467-.852.609.304a1.56 1.56 0 0 1 0-1.603 1.02 1.02 0 0 1 .284-.355l.781.406zm.172-2.607l.7.223a2.15 2.15 0 0 1-.193-1.937c.426-1.17 1.298-1.508 2.617-1.014l3.631 1.329-.345.943-3.631-1.39a1.4 1.4 0 0 0-1.014-.051 1.17 1.17 0 0 0-.371.303c-.101.125-.175.271-.218.427a1.42 1.42 0 0 0 0 .893 1.69 1.69 0 0 0 .436.771l3.926 1.44-.345.943-5.498-2.029.304-.852z"/></g></svg>