<svg xmlns="http://www.w3.org/2000/svg" width="101" height="101" fill="none" xmlns:v="https://vecta.io/nano"><g fill="#94a880"><path d="M42.099 43.923l-5.736 1.396-1.905-6.49 9.547-2.15c.739 1.171 1.78 2.12 3.014 2.748s2.614.91 3.996.818c4.198 0 6.236-1.905 7.132-3.688l9.424 1.905-1.915 6.368-5.726-1.396v7.642h2.547v-4.35l4.962 1.273 3.311-11.462-14.386-2.914-.255 1.273s-.642 2.802-5.094 2.802c-4.075 0-5.094-2.802-5.094-2.924l-.387-1.151-14.386 3.291 3.311 11.462 4.962-1.274v21.019h8.406v-2.547h-5.726V43.923zm13.5 24.107h-5.298v-5.298c0-2.486.988-4.87 2.745-6.628a9.37 9.37 0 0 1 6.628-2.745h5.298v5.298c-.003 2.485-.991 4.868-2.748 6.625s-4.14 2.746-6.625 2.749zm-2.853-2.445h2.853a6.94 6.94 0 0 0 6.928-6.928v-2.853h-2.853a6.94 6.94 0 0 0-6.928 6.928v2.853z"/><path d="M52.532 68.03a1.23 1.23 0 0 1-.667-.194c-.199-.127-.358-.309-.456-.524a1.24 1.24 0 0 1-.101-.687c.033-.234.133-.454.287-.633l5.094-6.113a1.23 1.23 0 0 1 .37-.302 1.22 1.22 0 0 1 1.352.139c.248.21.405.509.435.833s-.067.647-.272.899l-5.094 6.113a1.25 1.25 0 0 1-.421.34c-.163.081-.343.125-.526.129zm-2.027 13.041a30.57 30.57 0 0 1-16.981-5.151c-5.026-3.358-8.944-8.132-11.258-13.718s-2.919-11.731-1.739-17.66 4.091-11.376 8.365-15.65 9.721-7.186 15.65-8.365a30.57 30.57 0 0 1 17.66 1.739c5.585 2.313 10.359 6.231 13.718 11.258s5.151 10.936 5.151 16.981c0 8.107-3.22 15.881-8.952 21.613s-13.507 8.953-21.613 8.953zm0-58.687a28.12 28.12 0 0 0-19.884 48.005 28.12 28.12 0 0 0 48.005-19.884 28.15 28.15 0 0 0-28.121-28.09v-.031z"/></g><path d="M18.176 24.83a4.81 4.81 0 0 1 1.467 1.477c.322.496.486 1.079.469 1.671a3.06 3.06 0 0 1-.571 1.64c-.32.499-.782.89-1.328 1.122a2.96 2.96 0 0 1-1.729.182 4.7 4.7 0 0 1-1.864-.774l-.469-.326a4.86 4.86 0 0 1-1.457-1.467 3.14 3.14 0 0 1-.418-1.243c-.05-.439-.007-.884.127-1.305a3.14 3.14 0 0 1 .649-1.139c.294-.329.655-.594 1.058-.775.55-.233 1.157-.293 1.742-.173a4.91 4.91 0 0 1 1.905.825l.418.285zm-1.019.571c-.603-.473-1.343-.738-2.109-.754-.302.023-.595.113-.858.263s-.489.358-.662.607-.288.533-.337.832a2.04 2.04 0 0 0 .053.896 3.48 3.48 0 0 0 1.406 1.671l.479.326c.602.466 1.338.726 2.099.744a2.04 2.04 0 0 0 1.824-2.578 3.51 3.51 0 0 0-1.426-1.671l-.469-.336zm2.456-4.27a2.12 2.12 0 0 1 .672-1.773c.886-.866 1.834-.805 2.822.194l2.731 2.792-.723.703-2.7-2.832c-.219-.26-.529-.428-.866-.469a1.15 1.15 0 0 0-.471.113 1.17 1.17 0 0 0-.384.295 1.48 1.48 0 0 0-.438.785 1.81 1.81 0 0 0 .071.897l2.945 3.057-.723.703-5.869-6.001.723-.703 2.211 2.241zm5.217-5.491l.448.591a2.13 2.13 0 0 1 1.019-1.691c1.019-.703 1.956-.479 2.751.683l2.191 3.23-.835.57-2.19-3.24c-.173-.293-.449-.511-.774-.611a1.16 1.16 0 0 0-.907.245 1.41 1.41 0 0 0-.57.703 1.9 1.9 0 0 0-.092.897l2.364 3.474-.835.571-3.322-4.891.754-.53zm10.372.957a2.59 2.59 0 0 1-1.046.265c-.363.014-.726-.049-1.063-.184-.694-.324-1.234-.905-1.508-1.62l-.071-.163c-.234-.489-.349-1.027-.336-1.569a2.6 2.6 0 0 1 .408-1.375 2.36 2.36 0 0 1 1.019-.886 2.18 2.18 0 0 1 1.946 0 3.29 3.29 0 0 1 1.467 1.712l.173.387-3.648 1.64a2.04 2.04 0 0 0 1.019 1.08 1.62 1.62 0 0 0 1.355 0 1.69 1.69 0 0 0 .744-.601 2.17 2.17 0 0 0 .357-.795l.764.183a2.5 2.5 0 0 1-.532 1.174c-.277.338-.638.597-1.047.752zm-2.282-4.779a1.33 1.33 0 0 0-.467.331c-.13.143-.228.311-.287.495a2.19 2.19 0 0 0 0 1.345l2.7-1.213v-.061c-.176-.398-.482-.724-.866-.927a1.28 1.28 0 0 0-.543-.104c-.186.005-.37.051-.537.134zm15.14 1.427l-1.019.153-4.84-5.502.856 6.113-1.019.143-1.121-7.866 1.019-.153 4.829 5.532-.856-6.113 1.019-.143 1.131 7.835zm5.828.224c-.069-.204-.107-.417-.112-.632a2.25 2.25 0 0 1-.794.499c-.297.109-.613.154-.928.133a2.04 2.04 0 0 1-1.396-.581 1.58 1.58 0 0 1-.489-1.284 1.67 1.67 0 0 1 .205-.808c.136-.248.331-.457.57-.608a3.27 3.27 0 0 1 2.038-.397L54 9.852v-.458a1.12 1.12 0 0 0-.265-.866 1.28 1.28 0 0 0-.421-.276 1.27 1.27 0 0 0-.495-.091 1.5 1.5 0 0 0-.917.214.85.85 0 0 0-.28.273.86.86 0 0 0-.128.369l-1.019-.061c.028-.298.149-.58.346-.805a2.14 2.14 0 0 1 .886-.601c.381-.138.788-.193 1.192-.163a2.37 2.37 0 0 1 1.569.601c.193.186.342.412.437.662a1.81 1.81 0 0 1 .113.785l-.163 2.71a3.29 3.29 0 0 0 .133 1.304v.082l-1.1-.061zm-1.63-.866c.317.016.633-.05.917-.194.273-.13.5-.34.652-.601l.071-1.212h-.785c-1.243-.082-1.885.245-1.926 1.019-.016.14.001.282.048.414a.91.91 0 0 0 .227.35 1.23 1.23 0 0 0 .795.224zm6.938 1.07a1.46 1.46 0 0 0 1.019-.102 1.1 1.1 0 0 0 .621-.693l.937.224a1.82 1.82 0 0 1-.571.856 2.19 2.19 0 0 1-1.019.52c-.385.092-.786.092-1.172 0a2.4 2.4 0 0 1-.98-.426 2.44 2.44 0 0 1-.701-.807 3.24 3.24 0 0 1-.183-2.313v-.163a3.48 3.48 0 0 1 .662-1.426 2.34 2.34 0 0 1 1.121-.795c.472-.139.975-.139 1.447 0a2.36 2.36 0 0 1 1.477.958 2.15 2.15 0 0 1 .316 1.671l-.927-.224c.064-.353-.009-.717-.204-1.019a1.37 1.37 0 0 0-.846-.581 1.41 1.41 0 0 0-.68-.029c-.226.046-.437.147-.614.294a2.65 2.65 0 0 0-.784 1.457l-.041.133a2.51 2.51 0 0 0 0 1.62c.097.226.252.423.448.571a1.41 1.41 0 0 0 .672.274zm6.602-2.608a2.19 2.19 0 0 1 1.936-.071c1.151.499 1.447 1.396.897 2.69l-1.538 3.637-.927-.397 1.538-3.678c.169-.312.21-.678.112-1.019a1.18 1.18 0 0 0-.703-.631 1.45 1.45 0 0 0-.897-.102c-.302.062-.577.203-.805.407l-1.661 3.861-.927-.397 3.311-7.703.927.397-1.263 3.006zm7.957 1.63l-.744 1.212.937.581-.408.662-.937-.571-1.916 3.128a.84.84 0 0 0-.153.53.61.61 0 0 0 .336.418 2.88 2.88 0 0 0 .448.194l-.428.693a3.04 3.04 0 0 1-.713-.306c-.17-.088-.318-.214-.432-.367s-.193-.331-.23-.519a1.75 1.75 0 0 1 .316-1.172l1.905-3.128-.917-.56.408-.662.917.56.754-1.223.856.53zm.276 9.353c-.292-.219-.535-.497-.71-.817a2.56 2.56 0 0 1-.309-1.037c-.021-.384.035-.768.165-1.13s.33-.695.589-.979l.112-.143c.339-.431.771-.779 1.263-1.019a2.63 2.63 0 0 1 1.406-.245 2.45 2.45 0 0 1 1.263.53 2.19 2.19 0 0 1 .897 1.722 3.29 3.29 0 0 1-.876 2.038l-.265.326-3.057-2.537a2.04 2.04 0 0 0-.499 1.416 1.59 1.59 0 0 0 .611 1.202c.242.206.534.347.846.408.286.055.58.055.866 0l.173.764c-.419.148-.871.179-1.307.091a2.46 2.46 0 0 1-1.169-.591zm3.26-4.177a1.37 1.37 0 0 0-1.019-.305 2.1 2.1 0 0 0-1.192.642l2.293 1.875v-.061a1.89 1.89 0 0 0 .438-1.182c-.01-.19-.061-.375-.151-.542a1.3 1.3 0 0 0-.368-.426zm.418 7.529l-.693-.734 4.3-4.075.693.744-4.3 4.065zm4.687-5.93a.59.59 0 0 1 .408-.173.54.54 0 0 1 .428.204.59.59 0 0 1 .183.438.61.61 0 0 1-.194.397.59.59 0 0 1-.407.173.62.62 0 0 1-.235-.064.63.63 0 0 1-.193-.15.58.58 0 0 1-.183-.438.57.57 0 0 1 .194-.387zm-2.68 8.294l-.632-.795 6.551-5.227.632.785-6.551 5.237zm2.415 3.739a2.55 2.55 0 0 1-.384-.983 2.53 2.53 0 0 1 .048-1.054 2.9 2.9 0 0 1 .528-1.012c.241-.299.54-.547.878-.73l.163-.102c.459-.29.978-.471 1.518-.53a2.61 2.61 0 0 1 1.406.244 2.33 2.33 0 0 1 1.019.917 2.19 2.19 0 0 1 .316 1.875 3.23 3.23 0 0 1-1.518 1.681l-.367.214L83.7 28.61c-.45.257-.785.676-.937 1.172a1.6 1.6 0 0 0 .183 1.335 1.72 1.72 0 0 0 .662.662 2.31 2.31 0 0 0 .825.255l-.082.774c-.454.007-.902-.11-1.293-.34a2.48 2.48 0 0 1-.928-.964zm4.473-2.863c-.1-.166-.233-.31-.39-.422a1.39 1.39 0 0 0-.527-.23 2.17 2.17 0 0 0-1.335.214l1.549 2.527h.061c.369-.223.653-.564.805-.968a1.25 1.25 0 0 0-.163-1.121zM6.429 53.45l5.094-.306-.051-.927h.774l.051.937h.611a2.04 2.04 0 0 1 1.498.428 1.91 1.91 0 0 1 .446.635c.104.24.156.499.155.76a3.31 3.31 0 0 1-.051.703h-.815a2.41 2.41 0 0 0 0-.55.96.96 0 0 0-.326-.733 1.15 1.15 0 0 0-.846-.224h-.621l.082 1.253h-.785l-.071-1.263-5.094.306-.051-1.019zm1.722 8.191a2.13 2.13 0 0 1-1.019-1.528c-.074-.257-.09-.527-.048-.791s.142-.516.292-.737c.378-.446.908-.737 1.488-.815l3.76-.784.204 1.019-3.729.774c-.876.183-1.243.632-1.09 1.345a1.51 1.51 0 0 0 1.162 1.284l4.208-.876.204 1.019-5.797 1.172-.194-.937.56-.143zm6.113-4.412a.55.55 0 0 1 .693.458.55.55 0 0 1-.448.703.54.54 0 0 1-.438-.061.57.57 0 0 1-.245-.407.59.59 0 0 1 .061-.469.58.58 0 0 1 .377-.224zm.469 2.293a.64.64 0 0 1 .438.061.58.58 0 0 1 .255.408.55.55 0 0 1-.071.469.59.59 0 0 1-.377.234.64.64 0 0 1-.438-.061.62.62 0 0 1-.255-.407.55.55 0 0 1 .448-.703zm-.398 6.949a3.06 3.06 0 0 0-.132-.479 1.32 1.32 0 0 0-.452-.725 1.31 1.31 0 0 0-.801-.294L9.007 66.45l-.346-.948 5.553-2.038.336.927-.642.244a1.59 1.59 0 0 1 1.233 1.019 1.19 1.19 0 0 1 .082.448l-.886.367zm5.309 4.024l-3.729 5.92 6.775-1.691.795 1.1-6.439 4.666-.611-.846 2.506-1.814 2.761-1.885-6.745 1.661-.469-.652 3.678-5.869-2.639 2.038-2.506 1.814-.611-.846 6.439-4.656.795 1.06zm1.752 14.244a2.56 2.56 0 0 1-.675-.836c-.163-.323-.256-.677-.272-1.039a2.94 2.94 0 0 1 .825-2.038l.133-.132a3.42 3.42 0 0 1 1.284-.958c.443-.227.942-.319 1.437-.265a2.32 2.32 0 0 1 1.243.56 2.22 2.22 0 0 1 .846 1.763 3.27 3.27 0 0 1-.958 2.038l-.275.316-3.006-2.639a2.04 2.04 0 0 0-.581 1.426 1.6 1.6 0 0 0 .581 1.223c.232.216.517.367.825.438.286.056.58.056.866 0l.153.764a2.47 2.47 0 0 1-1.297.018 2.48 2.48 0 0 1-1.128-.64zm3.403-4.075a1.31 1.31 0 0 0-.473-.281c-.176-.059-.362-.082-.546-.065a2.2 2.2 0 0 0-1.212.601l2.221 1.946h.051a1.94 1.94 0 0 0 .479-1.172c0-.195-.044-.388-.131-.563a1.28 1.28 0 0 0-.368-.446l-.02-.02zm4.534 2.567l-.357.652a2.18 2.18 0 0 1 1.956.194c1.019.652 1.233 1.579.509 2.792L29.405 90.2l-.876-.54 2.038-3.332a1.45 1.45 0 0 0 .245-.968 1.22 1.22 0 0 0-.611-.723 1.5 1.5 0 0 0-.866-.224c-.304.023-.598.121-.856.285l-2.19 3.607-.815-.52 3.057-5.094.805.54zm6.654 8.131c.046-.115.065-.24.054-.364a.8.8 0 0 0-.115-.349 3.15 3.15 0 0 0-.856-.754 4.92 4.92 0 0 1-1.019-.805 1.63 1.63 0 0 1-.418-.744 1.24 1.24 0 0 1 .071-.784 1.52 1.52 0 0 1 1.019-.917c.54-.166 1.122-.134 1.64.092a2.49 2.49 0 0 1 1.335 1.08 1.63 1.63 0 0 1 .102 1.457l-.948-.367c.049-.129.068-.268.055-.405s-.056-.271-.127-.389c-.161-.281-.418-.494-.723-.601-.277-.13-.59-.158-.886-.082a.73.73 0 0 0-.52.469.64.64 0 0 0-.045.32.65.65 0 0 0 .117.302 3.53 3.53 0 0 0 .846.703 5.58 5.58 0 0 1 1.019.825c.212.216.366.483.448.774a1.5 1.5 0 0 1-.081.835 1.54 1.54 0 0 1-1.019.958 2.69 2.69 0 0 1-1.712-.153c-.406-.15-.774-.387-1.08-.693a2.04 2.04 0 0 1-.54-.958 1.65 1.65 0 0 1 .071-1.019l.937.367a1.02 1.02 0 0 0 .092.897 1.59 1.59 0 0 0 .825.642 1.65 1.65 0 0 0 .937.112.73.73 0 0 0 .315-.16.72.72 0 0 0 .204-.289zm5.542 2.425a1.5 1.5 0 0 0 1.019-.122 1.2 1.2 0 0 0 .378-.294 1.21 1.21 0 0 0 .233-.419l.927.204a1.75 1.75 0 0 1-.54.866 2.28 2.28 0 0 1-1.019.54 2.55 2.55 0 0 1-1.172 0c-.355-.058-.692-.195-.988-.399a2.43 2.43 0 0 1-.723-.783 3.25 3.25 0 0 1-.245-2.303v-.173a3.56 3.56 0 0 1 .632-1.437 2.43 2.43 0 0 1 1.141-.825c.472-.139.974-.139 1.447 0 .602.099 1.14.433 1.498.927a2.04 2.04 0 0 1 .357 1.651l-.927-.194c.056-.357-.028-.722-.234-1.019-.206-.291-.516-.492-.866-.56a1.45 1.45 0 0 0-.667-.044 1.48 1.48 0 0 0-.617.258 2.63 2.63 0 0 0-.744 1.487v.183a2.49 2.49 0 0 0 .092 1.62 1.41 1.41 0 0 0 1.019.836zm6.021-3.658a2.18 2.18 0 0 1 1.773-.764c1.253 0 1.854.774 1.813 2.18l-.143 3.902h-1.019l.143-3.902c.037-.34-.054-.681-.255-.958-.117-.114-.255-.203-.408-.261a1.18 1.18 0 0 0-.478-.075 1.46 1.46 0 0 0-.866.234 1.71 1.71 0 0 0-.601.662l-.153 4.208h-1.019l.296-8.385h1.019l-.102 3.158zm13.684 3.27a2.1 2.1 0 0 1-1.528 1.019c-.255.076-.523.098-.786.063s-.517-.126-.742-.266c-.453-.373-.753-.898-.846-1.477l-.866-3.739 1.019-.234.866 3.719c.204.876.652 1.233 1.365 1.019a1.51 1.51 0 0 0 1.304-1.192l-1.019-4.187 1.019-.224 1.304 5.838-.937.214-.153-.55zm2.629-6.429l.326.652a2.16 2.16 0 0 1 1.294-1.477c1.151-.489 2.038-.092 2.568 1.202l1.538 3.597-.937.397-1.528-3.597c-.111-.323-.341-.593-.642-.754a1.15 1.15 0 0 0-.937.071 1.43 1.43 0 0 0-.693.571c-.164.26-.25.56-.265.866l1.64 3.882-.927.397-2.313-5.441.876-.367zm6.602.143c-.455-.638-.687-1.407-.662-2.191a2.2 2.2 0 0 1 2.72-1.926l-1.691-2.568.846-.56 4.605 7.01-.774.509-.387-.499a2.04 2.04 0 0 1-1.019 1.549 2.04 2.04 0 0 1-1.854.214c-.731-.281-1.345-.802-1.742-1.477l-.041-.061zm.917-.459a2.59 2.59 0 0 0 1.202 1.08c.205.088.429.123.651.104s.436-.094.623-.216c.25-.152.449-.374.572-.639s.165-.56.121-.849l-1.487-2.272a1.49 1.49 0 0 0-1.62.071 1.32 1.32 0 0 0-.47.471c-.114.195-.177.415-.182.64a2.88 2.88 0 0 0 .591 1.61zm14.325-9.169l-.683.805-7.254-.856 4.677 3.943-.672.805-6.113-5.094.683-.815 7.285.907-4.666-4.025.672-.795 6.072 5.125zm3.657-6.164a2.04 2.04 0 0 1-.621-.173 2.23 2.23 0 0 1-.163 1.824 2.04 2.04 0 0 1-1.111 1.019 1.63 1.63 0 0 1-1.375-.112 1.65 1.65 0 0 1-.917-1.304 3.31 3.31 0 0 1 .489-1.977l.469-.856-.408-.224a1.12 1.12 0 0 0-.886-.132c-.32.121-.58.362-.723.672a1.49 1.49 0 0 0-.194.927.81.81 0 0 0 .123.372c.071.112.169.205.284.27l-.489.886c-.27-.156-.481-.396-.601-.683a2.14 2.14 0 0 1-.163-1.019 2.75 2.75 0 0 1 .357-1.151c.243-.526.676-.942 1.212-1.162.248-.087.513-.118.775-.094s.516.105.744.237l2.384 1.304a3.42 3.42 0 0 0 1.243.438h.071l-.499.937zm-1.477 1.1c.144-.28.217-.592.214-.907a1.54 1.54 0 0 0-.265-.846l-1.019-.581-.377.693c-.591 1.09-.571 1.803.061 2.15.119.074.253.12.393.134a.92.92 0 0 0 .412-.053 1.26 1.26 0 0 0 .581-.56v-.031zm-3.321-8.365l1.335.51.387-1.019.734.275-.387 1.019 3.434 1.294c.178.063.372.063.55 0a.62.62 0 0 0 .346-.407 2.38 2.38 0 0 0 .112-.479l.754.285a2.99 2.99 0 0 1-.163.764 1.27 1.27 0 0 1-.279.492c-.129.141-.288.251-.465.323a1.76 1.76 0 0 1-1.263-.041l-3.434-1.294-.377 1.019-.723-.275.377-1.019-1.345-.509.408-.937zm8.201-4.575a2.16 2.16 0 0 1 .306 1.844 1.83 1.83 0 0 1-.276.734 1.82 1.82 0 0 1-.559.55c-.53.256-1.136.307-1.701.143l-3.749-.825.214-1.019 3.729.815c.876.194 1.386-.061 1.549-.774a1.52 1.52 0 0 0-.52-1.691l-4.198-.917.224-1.019 5.767 1.263-.204.937-.581-.041zm-3.677-6.908c0 .153 0 .316-.071.499-.042.284.008.575.144.828a1.34 1.34 0 0 0 .61.578l4.177.295-.071 1.019-5.889-.418.071-1.019h.683a1.56 1.56 0 0 1-.693-1.375c0-.153.038-.304.112-.438l.927.031z" fill="#000"/></svg>