<svg xmlns="http://www.w3.org/2000/svg" width="48" height="42" fill="none" xmlns:v="https://vecta.io/nano"><path d="M13.5 12.65L6.75 14.3 4.5 6.65 15.75 4.1c1.05 1.65 3.3 4.2 8.25 4.2s7.35-2.25 8.4-4.35L43.5 6.2l-2.25 7.5-6.75-1.65v9h3v-5.1l5.85 1.5 3.9-13.5L30.3.5 30 2s-.75 3.3-6 3.3c-4.8 0-6-3.3-6-3.45L17.55.5.6 4.4l3.9 13.5 5.85-1.5v24.75h9.9v-3H13.5v-25.5z" fill="#94a880"/><g stroke="#94a880" stroke-width="2.8"><path d="M24 32.227a8 8 0 0 1 8-8h7.955v7.955a8 8 0 0 1-8 8H24v-7.955z"/><path d="M25.227 40.182l7.364-8.591" stroke-linecap="round"/></g></svg>