<svg xmlns="http://www.w3.org/2000/svg" width="73" height="64" fill="none" xmlns:v="https://vecta.io/nano"><path d="M16.83 20.745c10.116-15 29.623-17.25 44.997-15-6 31.498-16.874 50.622-29.998 53.997-11.28 2.9-25.873-22.874-15-38.997z" fill="#fff"/><g fill="#373939"><path d="M19.025 50.844a1.15 1.15 0 0 1-.978-1.254c.003-.01.01-.048.02-.112.295-1.8 4.004-24.574 26.3-32.48.602-.22 1.204.074 1.43.664s-.075 1.18-.677 1.4c-21.74 7.816-24.825 30.6-24.825 30.82-.075.516-.527.96-1.128.96h-.15z"/><path fill-rule="evenodd" d="M57.992 1.442a121.63 121.63 0 0 0-20.086 7.521c-14.143 6.7-23.02 14.526-26.405 23.226-2.86 7.373-1.655 15.263 3.76 23.3l.15.22.3.147a26.77 26.77 0 0 0 10.456 2.138c4.288 0 8.425-1.106 12.112-3.17 12.187-6.93 19.333-24.553 21.214-52.204V1l-1.504.442zM37.154 52.835c-9.178 5.235-18.506 1.843-20.236 1.106-4.814-7.373-5.943-14.452-3.3-21.014 3.912-10.102 15.873-17.55 25.276-21.973 5.868-2.802 11.96-5.088 18.205-6.93-1.956 25.586-8.877 42.47-19.935 48.812z"/></g></svg>