<?xml version="1.0" encoding="UTF-8"?>
<svg width="16px" height="15px" viewBox="0 0 16 15" version="1.1" xmlns="http://www.w3.org/2000/svg" xmlns:xlink="http://www.w3.org/1999/xlink">
    <title>like</title>
    <g id="Varianten" stroke="none" stroke-width="1" fill="none" fill-rule="evenodd">
        <g id="Variante_PDP_Neukunde" transform="translate(-235.000000, -919.000000)" fill="#000000" fill-rule="nonzero">
            <g id="Kundenfavorit" transform="translate(230.000000, 912.000000)">
                <g id="like" transform="translate(5.000000, 7.000000)">
                    <path d="M15.12,8.53695842 C15.12,8.16382501 14.9694202,7.81612788 14.70987,7.5596987 C15.0040898,7.24244362 15.15402,6.81712799 15.1130602,6.37446679 C15.0393502,5.5853308 14.3179903,4.96694387 13.47003,4.96694387 L9.57852,4.96694387 C9.7713,4.39014556 10.0799902,3.33282265 10.0799902,2.48347193 C10.0799902,1.13680402 8.91891,0 8.18999016,0 C7.53605016,0 7.06795031,0.363209189 7.04843016,0.378110079 C6.97345031,0.437102469 6.92998031,0.526507808 6.92998031,0.620860708 L6.92998031,2.72622256 L5.11496016,6.59984274 L5.03998031,6.63770614 L5.03998031,6.51911019 C5.03998031,6.34774996 4.89885047,6.20866528 4.72497047,6.20866528 L1.57499016,6.20866528 C0.706239844,6.20869439 0,6.90469982 0,7.76086071 L0,12.7278337 C0,13.5840237 0.706239844,14.28 1.57499016,14.28 L3.46499016,14.28 C4.14601031,14.28 4.72813031,13.8515994 4.94737031,13.2537012 C5.47155,13.5194435 6.17714016,13.6591393 6.615,13.6591393 L12.3977798,13.6591393 C13.0838498,13.6591393 13.6842497,13.2034107 13.82535,12.5750996 C13.8977902,12.2510052 13.85559,11.9250482 13.71195,11.6419313 C14.17689,11.4115787 14.4900098,10.9378643 14.4900098,10.3995696 C14.4900098,10.1797815 14.4389798,9.96930645 14.3425898,9.77932011 C14.8075298,9.54835632 15.12,9.07525306 15.12,8.53695842 Z M13.79133,9.3031028 C13.6697498,9.31739252 13.5670402,9.39870714 13.5279998,9.51357787 C13.4895797,9.6284486 13.5217097,9.75446589 13.6111598,9.83767223 C13.7711897,9.98606995 13.8600197,10.1859805 13.8600197,10.3995696 C13.8600197,10.7913292 13.5595097,11.1204002 13.1619895,11.165714 C13.0404094,11.1800038 12.9376997,11.2613184 12.8986594,11.3761891 C12.8602392,11.4910598 12.8923692,11.6170771 12.9818194,11.7002835 C13.1890992,11.8927436 13.2722592,12.1628222 13.2098892,12.4409916 C13.1323992,12.7874372 12.7909294,13.0382786 12.3978094,13.0382786 L6.615,13.0382786 C6.10343016,13.0382786 5.24537016,12.801727 4.94802,12.5080456 C4.85792016,12.4198917 4.72184016,12.3938151 4.60466016,12.4409916 C4.48686,12.4888083 4.40999016,12.6024276 4.40999016,12.7278337 C4.40999016,13.2413032 3.98601,13.6591393 3.46499016,13.6591393 L1.57499016,13.6591393 C1.05397031,13.6591393 0.629990156,13.2413032 0.629990156,12.7278337 L0.629990156,7.76086071 C0.629990156,7.24739118 1.05397031,6.82955509 1.57499016,6.82955509 L4.40999016,6.82955509 L4.40999016,7.14 C4.40999016,7.24742028 4.46669016,7.34736102 4.55992031,7.40449079 C4.65191016,7.45911769 4.76782031,7.46470552 4.86610031,7.41752907 L5.49609047,7.10708417 C5.55973031,7.07603095 5.61076031,7.02387783 5.64100031,6.95993788 L7.53100031,2.92427052 C7.54990031,2.88329308 7.55997047,2.83859041 7.55997047,2.79388774 L7.55997047,0.789106887 C7.69103016,0.717716491 7.91847984,0.620860708 8.18999016,0.620860708 C8.53524,0.620860708 9.45,1.4664862 9.45,2.48347193 C9.45,3.57621355 8.84646984,5.15134238 8.84079984,5.16688354 C8.80426969,5.26187671 8.81685,5.369297 8.87544,5.45372567 C8.93465016,5.53754318 9.03168984,5.58783368 9.13499016,5.58783368 L13.47003,5.58783368 C13.99545,5.58783368 14.44149,5.95849331 14.4855802,6.43159656 C14.51898,6.7854927 14.3463403,7.12201416 14.03703,7.31013789 C13.94064,7.36849001 13.8833198,7.47404768 13.88772,7.58641553 C13.8921202,7.69878337 13.95765,7.79936437 14.0584402,7.85090632 C14.3249302,7.98440316 14.4899803,8.24764251 14.4899803,8.53695842 C14.4899803,8.92871795 14.1894998,9.25778896 13.79133,9.3031028 Z" id="Shape"></path>
                    <path d="M4.62,6.72 C4.38816724,6.72 4.2,6.85172078 4.2,7.01400827 L4.2,12.3059917 C4.2,12.4682792 4.38816724,12.6 4.62,12.6 C4.85183276,12.6 5.04,12.4682792 5.04,12.3059917 L5.04,7.01400827 C5.04,6.85172078 4.85183276,6.72 4.62,6.72 Z" id="Path"></path>
                </g>
            </g>
        </g>
    </g>
</svg>