<svg xmlns="http://www.w3.org/2000/svg" xmlns:xlink="http://www.w3.org/1999/xlink" width="50" height="51" xmlns:v="https://vecta.io/nano"><defs><path id="A" d="M0 .602h49.096v48.913H0z"/></defs><g fill="none" fill-rule="evenodd"><g transform="translate(0 .398)"><mask id="B" fill="#fff"><use xlink:href="#A"/></mask><path d="M49.096 25.06c0 13.507-11 24.456-24.548 24.456S-.001 38.566-.001 25.06 10.99.602 24.548.602s24.548 10.95 24.548 24.457" fill="#6d954a" mask="url(#B)"/></g><g stroke="#fefefe" stroke-width=".75"><path d="M44.42 35.905s-3.796-14.812-17.56-20.948m-.548 27.563c1.12 1.06 5.52-4.85 8.1-5.9 1.7-.68 2.62 1.5 2 2.18-.52.54-9.16 8.44-12.2 11.2-7.52-.13-14.7-3.76-19.26-9.92.1-1.23 1.27-16.47 4.16-12.64 2.02 2.68.7 7.9 2.16 7.85 1.45-.05 6.45-5.06 10.26-8.86l.2-.2 3.44-3.38c.43-.4.73-.64.88-.7.88-.35 1.78.12 2.07.7.17.3.17.6-.04.87-.44.54-2.2 2.17-4.1 4-.08.1-.18.17-.26.26-3 2.87-6.17 6.15-5.06 6.45.93.25 4.28-2.5 7.5-5.32.13-.12.25-.22.37-.34l2.3-2.06 3.9-3.54c1.16-.5 2.8.8 1.87 2.3-.22.35-1.03 1.17-2.15 2.25l-1.73 1.65c-.17.16-.34.3-.5.48-3.82 3.6-8.6 8.1-7.86 8.44.9.42 7-5.67 10.38-8.56.25-.22.5-.4.72-.6.6-.48 1.07-.8 1.32-.85l.14-.03a22.78 22.78 0 0 0 1.389.25 1.03 1.03 0 0 1 .4.3c.53.52.7 1.35.08 2.16-1.1 1.52-12.1 10-10.48 11.52z"/><path d="M41.722 28.62c-.12.03-.24.05-.37.07-1.42.24-3.24.12-5.05-.15l-1.4-.25-2.46-.53 2.15-2.25c.94-1.5-.7-2.82-1.87-2.3-.22.1-1.83 1.64-3.9 3.54l-.33-.1 2-3.76h-2.35c-.3-.6-1.19-1.06-2.07-.7-.15.06-.45.3-.88.7h-.46c-9.43-8.55-8.87-18.1-8.87-18.1 2.36-.25 4.5-.1 6.3.17 3.3.5 5.4 1.52 5.4 1.52l2.3 5.76 1.46-3.58c11.46 9.73 10.4 20 10.4 20z"/></g></g></svg>