<svg xmlns="http://www.w3.org/2000/svg" xmlns:xlink="http://www.w3.org/1999/xlink" width="50" height="51" xmlns:v="https://vecta.io/nano"><defs><path id="A" d="M0 .853h49.096v48.912H0z"/></defs><g fill="none" fill-rule="evenodd"><g transform="translate(0 .147)"><mask id="B" fill="#fff"><use xlink:href="#A"/></mask><path d="M49.096 25.31c0 13.507-11 24.456-24.548 24.456S-.001 38.816-.001 25.31 10.99.852 24.548.852s24.548 10.95 24.548 24.457" fill="#6d954a" mask="url(#B)"/></g><g stroke="#fefefe" stroke-width=".75"><path d="M26.564 42.27c1.12 1.06 5.52-4.85 8.11-5.88 1.7-.68 2.62 1.5 1.99 2.17-.5.55-9.15 8.45-12.2 11.2a24.55 24.55 0 0 1-19.261-9.91c.1-1.23 1.27-16.47 4.16-12.64 2.02 2.68.7 7.9 2.16 7.85 1.43-.06 6.3-4.9 10.08-8.7l.38-.38c2.16-2.17 3.89-3.9 4.32-4.08 1.32-.53 2.67.8 2.03 1.6-.35.42-1.51 1.52-2.93 2.87l-1.17 1.13c-.08.08-.18.17-.26.25-3 2.88-6.17 6.15-5.06 6.45.93.25 4.28-2.5 7.49-5.32.13-.1.25-.22.37-.33l6.2-5.6c1.16-.52 2.81.8 1.87 2.3-.32.5-1.93 2.04-3.88 3.9-.17.15-.34.3-.51.47-3.82 3.6-8.6 8.1-7.86 8.44.91.42 6.99-5.67 10.38-8.55.25-.22.5-.42.72-.6.6-.48 1.07-.8 1.32-.86.54-.13 1.06-.05 1.47.18.2.1.35.2.47.34.53.52.68 1.36.08 2.17-1.11 1.52-12.09 10-10.48 11.5z"/><path d="M25.414 26.38l2.93-2.87c.64-.78-.7-2.12-2.03-1.6-.43.17-2.16 1.9-4.32 4.08l-.38.38c-14.89-3.68 1.68-21.66 1.68-21.66.43.37 6.08 9.54 6.53 10.47 2.61 5.5-.6 10.04-4.4 11.2z"/><path d="M20.344 14.522s-3.515 4.883.146 7.91"/></g></g></svg>