<svg height="16" viewBox="0 0 12 16" width="12" xmlns="http://www.w3.org/2000/svg"><g fill="#393939"><path d="m11.7949736 9.21964425-2.80001153-3.00003955c-.01657045-.01768369-.03356746-.03410175-.05128635-.04967605-.00810475-.00713676-.01663607-.01332429-.02497051-.02000402-.00994227-.00798051-.01968766-.01624227-.03005649-.02366028-.00997508-.00713676-.0203111-.01332429-.03054868-.01986339-.00938445-.00601175-.01853922-.01230475-.02818617-.01785947-.01043446-.00597659-.02113142-.01103912-.03179556-.01641806-.01007352-.00509768-.01998298-.01047661-.03028618-.01508211-.01033603-.00457034-.02090173-.00829692-.03140182-.01230475-.0110579-.00425393-.02195174-.00878911-.03323933-.01244538-.01050008-.00341018-.02119704-.00590628-.03179556-.00875395-.01151728-.00312893-.02290331-.00657426-.03461747-.00907037-.01230479-.00260157-.02470801-.00418361-.03707842-.00608206-.01020477-.00154688-.02024548-.00365627-.03061431-.00474612-.04593787-.00485159-.09223668-.00485159-.13817454 0-.01033602.00108985-.02037673.00316408-.03061431.00474612-.01237041.00189845-.02480645.00344533-.03707842.00608206-.01174697.00249611-.02310019.00594144-.03461747.00907037-.01063133.00284767-.02129548.00534377-.03179556.00875395-.01128759.00365627-.02221424.00819145-.03323933.01244538-.01050009.00404299-.0210658.00773441-.03140182.01230475s-.02021266.00998443-.03028618.01508211c-.01063133.00537894-.02136111.01044147-.03179556.01641806-.00964696.00555472-.01880172.01184772-.02818617.01785947-.01023758.0065391-.0205736.01272663-.03054868.01986339-.01036883.00741801-.02008141.01567977-.03005649.02366028-.00833444.00667973-.01686576.01286726-.02497051.02000402-.01771889.0155743-.03474872.03199236-.05092541.04932448l-2.80037243 3.00035596c-.27336312.29288829-.27336312.76778147 0 1.06066971.27336313.2928883.71659793.2928883.98996106 0l1.60503629-1.71967716v6.68940606c0 .4142132.31339469.7499923.69999467.7499923.38659997 0 .69999466-.3357791.69999466-.7499923v-6.6893709l1.60503628 1.7196772c.2733631.2928883.7165979.2928883.9899611 0 .2733303-.29292344.2733303-.76778146-.0000328-1.06066975z" transform="matrix(1 0 0 -1 0 22)"/><path d="m5.80504872 5.71975384-1.60503724 1.71969232v-6.68944726c0-.4142168-.31339488-.7499989-.69999507-.7499989-.3866002 0-.69999508.3357821-.69999508.7499989v6.68944726l-1.60503723-1.71969232c-.27336329-.29289086-.71659835-.29289086-.98996163 0-.27336329.29289087-.27336329.76778822 0 1.06067909l2.80001312 3.00003076c.01657046.01768384.03360029.03410204.05128638.04967648.00810476.00713682.01666889.01332441.02500334.02003935.00994227.00798058.01968767.01624242.03002369.02366049.00997509.00713682.02031112.01332441.0305487.01986356.00938446.00601181.01853923.01230486.02818618.01782447.01043447.00597665.02116425.01103922.0318284.01641821.01004071.00509772.01995017.01047671.03025339.01504708.01033602.00457038.02090174.008297.03140183.01230487.01105791.00425396.02195175.00878918.03323935.01244548.01050009.00341021.02116424.00590634.03179558.00875403.01151729.00312895.02290333.00657432.0346503.00907045.01230479.00260159.02470803.00414849.03707844.00604696.01020478.00154689.0202783.0036563.03061433.00474616.0459379.00485162.09223673.00485162.13817463 0 .01033602-.00108986.02037673-.00316411.03061432-.00474616.01237042-.00189847.02480646-.00344537.03707844-.00608212.01174698-.00249613.0231002-.00594149.03461749-.00907044.01063134-.0028477.02129549-.00534383.03179559-.00875403.01128759-.0036563.02221425-.00819153.03323934-.01244549.01050009-.00404303.02106581-.00773449.03140184-.01230486.01030321-.00457038.02017986-.00994936.03022057-.01504709.01066415-.00537898.02142674-.01044156.03186121-.01645336.00961414-.00551961.01876891-.01181267.02812055-.01778931.01023759-.00653916.02060643-.0127619.03058152-.01989872.01033602-.00741808.02004861-.01564476.02995807-.02359018.00836726-.00671494.01693139-.01293768.02506896-.0200745.01755484-.01543382.03445342-.03174655.05053169-.0489382l2.80076781-3.00076905c.27336329-.29289087.27336329-.76778822 0-1.06067908-.27336328-.29289087-.71653272-.29285571-.98992881.00003515z" transform="matrix(1 0 0 -1 0 10)"/></g></svg>