<svg xmlns="http://www.w3.org/2000/svg" viewBox="0 0 10 10"><defs><style>.st0{fill:#a89b8e;stroke:#a89b8e;stroke-linecap:round;stroke-linejoin:round}</style></defs><path d="M1.5.5C1.23.5.98.61.79.79a1 1 0 0 0-.29.71v3c0 .27.11.52.29.71.19.19.44.29.71.29.13 0 .26.05.35.15.09.09.15.22.15.35v.5c0 .27-.11.52-.29.71A1 1 0 0 1 1 7.5a.47.47 0 0 0-.35.15A.5.5 0 0 0 .5 8v1c0 .13.05.26.15.35.09.09.22.15.35.15.8 0 1.56-.32 2.12-.88S4 7.29 4 6.5v-5c0-.27-.11-.52-.29-.71A1 1 0 0 0 3 .5zM7 .5c-.27 0-.52.11-.71.29A1 1 0 0 0 6 1.5v3c0 .27.11.52.29.71.19.19.44.29.71.29.13 0 .26.05.35.15.09.09.15.22.15.35v.5c0 .27-.11.52-.29.71a1 1 0 0 1-.71.29.47.47 0 0 0-.35.15A.5.5 0 0 0 6 8v1c0 .13.05.26.15.35.09.09.22.15.35.15.8 0 1.56-.32 2.12-.88s.88-1.33.88-2.12v-5c0-.27-.11-.52-.29-.71A1 1 0 0 0 8.5.5z" class="st0"/></svg>