<svg xmlns="http://www.w3.org/2000/svg" xmlns:xlink="http://www.w3.org/1999/xlink" width="21" height="18"><defs><path d="M19.122 7.523h-2.528c.597-.666.96-1.545.96-2.508 0-2.074-1.687-3.762-3.762-3.762-1.646 0-2.694.81-3.76 2.122-1.15-1.41-2.2-2.122-3.762-2.122-2.074 0-3.762 1.687-3.762 3.762 0 .963.364 1.842.96 2.508H.94a.94.94 0 0 0-.94.94v3.135a.94.94 0 0 0 .94.94h.313v4.39a1.88 1.88 0 0 0 1.881 1.881h13.793a1.88 1.88 0 0 0 1.881-1.881v-4.39h.313a.94.94 0 0 0 .94-.94V8.464a.94.94 0 0 0-.94-.94zM10.97 6.27c.94-2.194 2.168-2.508 2.82-2.508.69 0 1.254.562 1.254 1.254s-.562 1.254-1.254 1.254h-2.82zM6.27 3.762c.653 0 1.88.313 2.82 2.508H6.27c-.69 0-1.254-.562-1.254-1.254s.562-1.254 1.254-1.254zm1.88 5.016h3.762v7.2a.94.94 0 0 1-.94.94H9.09a.94.94 0 0 1-.94-.94v-7.2z" id="A"/></defs><g transform="translate(0 -1)" fill-rule="evenodd"><mask id="B" fill="#fff"><use xlink:href="#A"/></mask><use fill="#000" fill-rule="nonzero" xlink:href="#A"/><path fill="#666" mask="url(#B)" d="M0 0h20v20H0z"/></g></svg>