<svg xmlns="http://www.w3.org/2000/svg" xmlns:xlink="http://www.w3.org/1999/xlink" width="18" height="18"><defs><path id="A" d="M0 .243h17.764V18H0z"/></defs><g fill-rule="evenodd"><mask id="B" fill="#fff"><use xlink:href="#A"/></mask><g fill="#393939"><path d="M16.58 8.878c-.125-4.37-3.92-7.873-8.486-7.415a7.66 7.66 0 0 0-6.872 8.451c.407 4.12 4.045 7.315 8.45 6.87 4.193-.423 7.044-4.016 6.91-7.907m1.185.234c-.023 4.932-3.94 8.856-8.814 8.888C4.022 18.033.003 14.053 0 9.193-.003 4.244 3.96.244 8.87.243c4.894-.002 8.89 3.98 8.896 8.87" mask="url(#B)"/><path d="M9.766 12.532l.207.01c.56.008.76.265.63.82-.052.218-.2.35-.423.35-.87.002-1.74.003-2.6-.004a.47.47 0 0 1-.248-.087c-.18-.126-.246-.497-.146-.782.08-.23.256-.3.5-.296.1.006.197.001.314.001v-4.24l-.406-.02c-.327-.04-.44-.22-.428-.662.01-.32.17-.514.466-.52H9.31c.303.004.466.205.467.548l.001 4.884zm-2.032-7.42a1.15 1.15 0 0 1 1.158-1.153c.64.01 1.14.522 1.14 1.172-.002.64-.523 1.158-1.16 1.153s-1.14-.52-1.14-1.172"/></g></g></svg>