<?xml version="1.0" encoding="utf-8"?>
<svg width="16px" height="16px" viewBox="0 0 16 16" version="1.1" xmlns:xlink="http://www.w3.org/1999/xlink" xmlns="http://www.w3.org/2000/svg">
  <g id="Group">
    <path d="M0.311541 16C0.231806 16 0.152072 15.9695 0.0913365 15.9087C-0.0304455 15.787 -0.0304455 15.5901 0.0913365 15.4683L15.4683 0.0913369C15.59 -0.0304456 15.7869 -0.0304456 15.9087 0.0913369C16.0304 0.213119 16.0304 0.409965 15.9087 0.531747L0.531745 15.9087C0.470698 15.9695 0.391275 16 0.311541 16Z" id="Path" fill="#231F20" stroke="none" />
    <path d="M15.6885 16C15.6087 16 15.529 15.9695 15.4683 15.9087L0.0913365 0.531747C-0.0304455 0.409965 -0.0304455 0.213119 0.0913365 0.0913369C0.213118 -0.0304456 0.409963 -0.0304456 0.531745 0.0913369L15.9087 15.4683C16.0304 15.5901 16.0304 15.787 15.9087 15.9087C15.8476 15.9695 15.7682 16 15.6885 16Z" id="Path" fill="#231F20" stroke="none" />
  </g>
</svg>