<svg xmlns="http://www.w3.org/2000/svg" width="24" height="21" xmlns:v="https://vecta.io/nano"><path d="M16.774 1c-1.836-.008-3.582.85-4.768 2.343C10.86 1.863 9.123 1 7.226 1 3.79 1.004 1.004 3.97 1 7.63c0 2.676 1.826 5.63 5.428 8.778a38.96 38.96 0 0 0 5.314 3.88c.16.094.353.094.513.001a38.17 38.17 0 0 0 5.316-3.852C21.173 13.303 23 10.34 23 7.63c-.015-3.655-2.794-6.614-6.226-6.63h0zM16.7 15.472c-1.997 1.77-4.02 3.077-4.708 3.505-.688-.433-2.712-1.754-4.71-3.532-3.988-3.55-4.824-6.147-4.824-7.7.003-2.96 2.218-5.358 4.95-5.36 1.72 0 3.272.9 4.148 2.408a.5.5 0 0 0 .43.258H12c.173.001.335-.093.43-.25 1.207-1.974 3.465-2.86 5.56-2.183s3.534 2.76 3.543 5.13c0 1.576-.837 4.196-4.823 7.73z" fill="#fff" stroke="#fff" stroke-width=".55"/></svg>