<svg xmlns="http://www.w3.org/2000/svg" width="14" height="13" xmlns:v="https://vecta.io/nano"><path d="M14 10.75c-.647.965-1.933 1.22-2.857.544l-4.75-3.476L4.664 9.08c.643 1.16.34 2.663-.73 3.446-1.13.827-2.69.54-3.48-.64s-.517-2.81.614-3.638a2.41 2.41 0 0 1 2.546-.2L5.73 6.5 3.613 4.952a2.41 2.41 0 0 1-2.546-.2C-.065 3.925-.34 2.296.452 1.114s2.35-1.47 3.48-.642c1.07.784 1.373 2.286.73 3.446l1.728 1.264 4.75-3.476c.924-.676 2.2-.422 2.857.544L8.192 6.5 14 10.75zM2.505 9.028c-.716 0-1.296.606-1.296 1.354s.58 1.354 1.296 1.354S3.8 11.13 3.8 10.382s-.58-1.354-1.296-1.354zm0-7.764C1.8 1.264 1.2 1.87 1.2 2.618s.58 1.354 1.296 1.354S3.8 3.366 3.8 2.618s-.58-1.354-1.296-1.354z" fill="#fff"/></svg>