<svg xmlns="http://www.w3.org/2000/svg" width="19" height="17" xmlns:v="https://vecta.io/nano"><path d="M13.19 1c-1.42-.006-2.768.66-3.684 1.815C8.618 1.67 7.277 1 5.81 1 3.155 1.003 1.003 3.3 1 6.137c0 2.073 1.41 4.362 4.194 6.8 1.29 1.122 2.662 2.127 4.106 3.007a.39.39 0 0 0 .397.001 29.5 29.5 0 0 0 4.108-2.985C16.59 10.532 18 8.236 18 6.137 17.988 3.305 15.84 1.013 13.19 1h0zm-.05 11.213c-1.543 1.37-3.106 2.384-3.638 2.715-.532-.335-2.096-1.36-3.64-2.737-3.08-2.75-3.728-4.762-3.728-5.967.002-2.293 1.714-4.15 3.825-4.154 1.33 0 2.528.696 3.206 1.866.072.124.198.2.333.2H9.5c.134.001.26-.072.332-.194.933-1.53 2.678-2.217 4.296-1.69s2.73 2.14 2.738 3.974c0 1.22-.647 3.25-3.727 5.988z" fill="#f58454" stroke="#f58454" stroke-width=".55"/></svg>