<svg xmlns="http://www.w3.org/2000/svg" width="17" height="16" xmlns:v="https://vecta.io/nano"><path d="M11.755 1c-1.252-.005-2.442.615-3.25 1.694C7.722 1.624 6.538 1 5.245 1 2.902 1.003 1.003 3.148 1 5.795c0 1.935 1.245 4.07 3.7 6.348 1.137 1.047 2.35 1.985 3.623 2.806.11.068.24.068.35.001a26.14 26.14 0 0 0 3.624-2.786C14.755 9.896 16 7.753 16 5.795 16 3.152 14.095 1.012 11.755 1h0zm-.043 10.466A25.23 25.23 0 0 1 8.501 14c-.47-.313-1.85-1.268-3.212-2.554C2.57 8.88 2 7 2 5.877 2.002 3.737 3.512 2.002 5.375 2c1.173 0 2.23.65 2.828 1.74.063.116.174.186.293.186H8.5a.34.34 0 0 0 .293-.181c.823-1.428 2.363-2.07 3.79-1.58s2.41 1.996 2.416 3.71c0 1.14-.57 3.034-3.29 5.59z" fill="#393939" stroke="#393939" stroke-width=".5"/></svg>