<svg xmlns="http://www.w3.org/2000/svg" width="47" height="45" xmlns:v="https://vecta.io/nano"><path d="M6.15 46.802c-2.056-1.63-4.357-3.05-6.028-5.153-.235-.292-.135-.847.314-.804.993.03 1.975-.055 2.94-.07C-3.014 28.23 1.42 8.91 13.405 1.32c.44-.384.855-.817 1.324-1.155.224-.133.44-.077.55.107l.405-.24c.39-.167.686.336.326.55-.765.453-1.477.998-2.143 1.516-4.77 4.99-8.514 11.69-9.8 18.45C2.92 26.423 2.79 34.753 6.502 40.1l.028.047c1.3-.084 2.616.306 3.886.605.218.058.434.423.26.65-1.248 1.793-2.418 3.72-3.866 5.38-.216.252-.506.176-.66.022" fill="#393939" transform="matrix(-.681998 .731354 .731354 .681998 12.110174 .256532)" fill-rule="evenodd"/></svg>