<svg xmlns="http://www.w3.org/2000/svg" width="24" height="25" xmlns:v="https://vecta.io/nano"><path d="M9.736.54C9.63.434 9.47.397 9.327.445l-6.556 2.15L.74.595C.583.446.333.448.18.6a.39.39 0 0 0-.005.552l2.03 1.998L.02 9.598A.39.39 0 0 0 .117 10l14.146 13.914c.156.154.41.154.566 0l9.054-8.905a.39.39 0 0 0 0-.556L9.736.54zm4.8 22.54L.857 9.616l1.98-5.844 1.55 1.526c-.566.843-.392 1.97.404 2.61s1.954.582 2.68-.133.784-1.853.135-2.636-1.796-.954-2.653-.397l-1.55-1.526 5.94-1.95 13.69 13.463-8.488 8.35zM5.776 6.66c.157.15.407.147.56-.005a.39.39 0 0 0 .005-.552l-.797-.784c.457-.22 1.005-.128 1.363.227a1.17 1.17 0 0 1 .1 1.578 1.22 1.22 0 0 1-1.584.27c-.52-.32-.713-.975-.445-1.52l.797.785z" fill="#f58454"/></svg>