<svg xmlns="http://www.w3.org/2000/svg" width="45" height="30"><path fill="#3B3B3B" d="M44.362 10.719H2.342V3.813a2.554 2.554 0 012.561-2.546 2.554 2.554 0 012.562 2.546v2.12c0 .349.286.633.638.633a.636.636 0 00.637-.634v-2.12C8.74 1.708 7.022 0 4.903 0S1.066 1.707 1.066 3.813v6.906H.638a.64.64 0 00-.5.24.63.63 0 00-.121.538l3.492 14.747A4.878 4.878 0 008.282 30h28.436a4.878 4.878 0 004.773-3.756l3.492-14.747a.63.63 0 00-.12-.538.64.64 0 00-.5-.24zm-1.508 4.238H2.146l-.703-2.97h42.114l-.703 2.97zM40.25 25.954a3.61 3.61 0 01-3.532 2.779H8.282a3.61 3.61 0 01-3.532-2.779l-2.304-9.73h40.108l-2.304 9.73z"/></svg>