<svg xmlns="http://www.w3.org/2000/svg" width="45" height="30" viewBox="0 0 45 30">
  <path fill="#3B3B3B" d="M242.362313,2686.71889 L200.341589,2686.71889 L200.341589,2679.81282 C200.341589,2678.40705 201.488513,2677.26744 202.903316,2677.26744 C204.318119,2677.26744 205.465043,2678.40705 205.465043,2679.81282 L205.465043,2681.93207 C205.465043,2682.28199 205.75053,2682.56565 206.102696,2682.56565 C206.454863,2682.56565 206.74035,2682.28199 206.74035,2681.93207 L206.74035,2679.81255 C206.74035,2677.70694 205.022451,2676 202.903316,2676 C200.78418,2676 199.066282,2677.70694 199.066282,2679.81255 L199.066282,2686.71862 L198.637505,2686.71862 C198.442784,2686.71867 198.258757,2686.80711 198.137842,2686.95877 C198.016927,2687.11043 197.972379,2687.30867 198.016886,2687.49702 L201.508859,2702.2437 C202.023811,2704.44853 204.004205,2706.00696 206.28215,2705.99998 L234.71785,2705.99998 C236.995795,2706.00696 238.976189,2704.44853 239.491141,2702.2437 L242.983114,2687.49739 C243.027621,2687.30903 242.983073,2687.11079 242.862158,2686.95913 C242.741243,2686.80748 242.557216,2686.71903 242.362495,2686.71898 L242.362313,2686.71889 Z M240.853625,2690.95748 L200.146193,2690.95748 L199.442588,2687.98606 L241.55723,2687.98606 L240.853625,2690.95748 Z M238.249721,2701.95406 C237.868332,2703.58515 236.403126,2704.73791 234.71785,2704.7328 L206.281968,2704.7328 C204.596692,2704.73791 203.131486,2703.58515 202.750097,2701.95406 L200.446255,2692.22465 L240.553563,2692.22465 L238.249721,2701.95406 Z" transform="translate(-198 -2676)"/>
</svg>
