<svg xmlns="http://www.w3.org/2000/svg" width="24" height="41"><path fill="#4C4B4B" d="M23.294 16.95H12.706V9.51c.04.046.077.096.122.14a2.77 2.77 0 001.962.685c1.685 0 3.87-1.008 5.774-2.812 2.674-2.53 2.463-6.709 2.453-6.886-.02-.34-.307-.61-.666-.63-.19-.008-4.604-.21-7.277 2.32a10.383 10.383 0 00-2.69 3.89 5.524 5.524 0 00-.201.747.596.596 0 00-.544.073 9.288 9.288 0 00-2.894-4.71C6.071-.203 1.658-.002 1.47.007c-.36.02-.646.29-.666.63-.01.177-.222 4.357 2.452 6.886 1.906 1.804 4.089 2.812 5.775 2.812a2.772 2.772 0 001.961-.686c.115-.111.216-.233.303-.365v7.666H.706c-.39 0-.706.3-.706.668v4.009c0 .369.316.668.706.668h1.436l.682 18.06c.013.36.325.645.705.645h16.942c.38 0 .692-.284.705-.644l.682-18.061h1.436c.39 0 .706-.3.706-.668v-4.009c0-.369-.316-.668-.706-.668zM2.22 1.347c1.228.05 3.861.348 5.528 1.925 2.047 1.937 2.858 4.026 2.488 5.05l-3.03-2.867a.735.735 0 00-.99.008.643.643 0 00-.008.937l2.76 2.612c-1.184-.016-3.003-.813-4.714-2.433-1.667-1.578-1.982-4.07-2.034-5.232zM13.724 6.64a9.033 9.033 0 012.349-3.368c1.667-1.578 4.302-1.877 5.53-1.926-.05 1.16-.362 3.648-2.037 5.233-1.963 1.859-4.068 2.637-5.193 2.39L17.087 6.4a.643.643 0 00-.008-.937.735.735 0 00-.99-.008L13.506 7.9c-.01-.428.064-.856.218-1.26zm6.066 33.024H4.21l-.655-17.37h16.89l-.655 17.37zm2.798-18.705H1.412v-2.673h21.176v2.673z"/></svg>