<svg xmlns="http://www.w3.org/2000/svg" width="24" height="41" viewBox="0 0 24 41">
  <path fill="#4C4B4B" d="M1071.29412,2686.95038 L1060.70588,2686.95038 L1060.70588,2679.51087 C1060.7469,2679.55621 1060.78274,2679.60645 1060.8279,2679.64918 C1061.35696,2680.11988 1062.06491,2680.36746 1062.79044,2680.33516 C1064.47518,2680.33516 1066.65935,2679.32723 1068.56434,2677.52337 C1071.23759,2674.99243 1071.02734,2670.81422 1071.01666,2670.63742 C1070.99667,2670.29753 1070.7099,2670.02613 1070.3511,2670.00721 C1070.16119,2669.99873 1065.74736,2669.79747 1063.0741,2672.32743 C1061.87948,2673.41594 1060.9599,2674.74551 1060.38465,2676.21762 C1060.29986,2676.46194 1060.23231,2676.71148 1060.18267,2676.96428 C1060.00034,2676.89871 1059.79527,2676.92644 1059.63913,2677.03702 C1059.18796,2675.23088 1058.18049,2673.59208 1056.74529,2672.32743 C1054.07066,2669.79682 1049.65751,2669.99808 1049.46898,2670.00721 C1049.10983,2670.02613 1048.82307,2670.29753 1048.80308,2670.63742 C1048.79274,2670.81422 1048.58146,2674.99374 1051.25471,2677.52337 C1053.16073,2679.32723 1055.34386,2680.33516 1057.02964,2680.33516 C1057.75448,2680.36713 1058.46243,2680.11955 1058.99115,2679.64918 C1059.10593,2679.53795 1059.20726,2679.41562 1059.29412,2679.28384 L1059.29412,2686.95038 L1048.70588,2686.95038 C1048.31606,2686.95038 1048,2687.2495 1048,2687.61842 L1048,2691.62669 C1048,2691.99562 1048.31606,2692.29474 1048.70588,2692.29474 L1050.14246,2692.29474 L1050.82353,2710.35577 C1050.83732,2710.71556 1051.14924,2711 1051.52941,2711 L1068.47059,2711 C1068.85076,2711 1069.16268,2710.71556 1069.17647,2710.35577 L1069.85754,2692.29474 L1071.29412,2692.29474 C1071.68394,2692.29474 1072,2691.99562 1072,2691.62669 L1072,2687.61842 C1072,2687.2495 1071.68394,2686.95038 1071.29412,2686.95038 Z M1050.21864,2671.34689 C1051.44669,2671.39615 1054.08031,2671.69494 1055.74713,2673.27209 C1057.79412,2675.20935 1058.60512,2677.2983 1058.2346,2678.32255 L1055.20496,2675.4553 C1054.92785,2675.20218 1054.48771,2675.20577 1054.21542,2675.46346 C1053.94313,2675.72115 1053.93934,2676.1377 1054.2068,2676.39996 L1056.96691,2679.0118 C1055.78297,2678.99581 1053.96381,2678.19892 1052.25287,2676.57904 C1050.5864,2675.00092 1050.27068,2672.50912 1050.21864,2671.34689 Z M1061.72438,2676.63971 C1062.22966,2675.3643 1063.0324,2674.21316 1064.07295,2673.27209 C1065.74012,2671.69429 1068.37511,2671.39549 1069.60283,2671.34624 C1069.5525,2672.50651 1069.24058,2674.99439 1067.56618,2676.57904 C1065.6026,2678.43802 1063.4977,2679.21567 1062.37305,2678.96841 L1065.08732,2676.39996 C1065.35478,2676.1377 1065.35099,2675.72115 1065.0787,2675.46346 C1064.80641,2675.20577 1064.36627,2675.20218 1064.08915,2675.4553 L1061.5062,2677.89947 C1061.49621,2677.47053 1061.56997,2677.04322 1061.72438,2676.63971 Z M1067.78952,2709.66391 L1052.21048,2709.66391 L1051.55492,2692.29474 L1068.44508,2692.29474 L1067.78952,2709.66391 Z M1070.58824,2690.95865 L1049.41176,2690.95865 L1049.41176,2688.28647 L1070.58824,2688.28647 L1070.58824,2690.95865 Z" transform="translate(-1048 -2670)"/>
</svg>
