<svg xmlns="http://www.w3.org/2000/svg" width="54" height="35"><g fill="#4C4B4B"><path d="M53.177 1.9A3.224 3.224 0 0050.335.03l-.756-.022c-3.017-.09-6.099.56-8.918 1.875L13.844 14.388l-8.902-2.68a.604.604 0 00-.43.031L.349 13.68a.605.605 0 00-.047 1.072l14.53 8.398a5.28 5.28 0 004.87.213l8.83-4.117.178 14.101a1.26 1.26 0 001.968 1.028 10.385 10.385 0 004.37-6.54l2.643-12.86 7.454-3.476c2.82-1.315 5.299-3.26 7.168-5.626l.47-.594a3.224 3.224 0 00.394-3.38zm-1.343 2.63l-.47.593c-1.753 2.218-4.08 4.044-6.73 5.28l-7.73 3.604a.605.605 0 00-.336.426l-2.705 13.158A9.182 9.182 0 0130 33.374c-.009.006-.025.017-.052.003-.028-.014-.028-.034-.028-.045l-.19-15.038a.604.604 0 00-.86-.54l-9.678 4.513a4.07 4.07 0 01-3.755-.165L1.912 14.286l2.902-1.353 8.902 2.68a.607.607 0 00.43-.032L41.172 2.98c2.65-1.235 5.545-1.844 8.371-1.762l.756.022c.784.023 1.45.461 1.782 1.172.331.711.239 1.503-.247 2.118z"/><path d="M16.974 3.093l5.67 4.391a.604.604 0 10.74-.956l-5.67-4.392c-.007-.005-.023-.017-.02-.046.004-.03.022-.037.03-.04a7.416 7.416 0 015.62-.23l6.66 2.4a.605.605 0 10.411-1.138l-6.662-2.4a8.62 8.62 0 00-6.531.266c-.405.185-.678.56-.73 1.002-.05.443.13.87.482 1.143z"/></g></svg>