<svg xmlns="http://www.w3.org/2000/svg" width="46" height="36" xmlns:v="https://vecta.io/nano"><path d="M20.527.62L20.6.516c.14-.236-.037-.498-.33-.513-2.487-.123-3.44 3.123-4.053 4.797-1 2.752-1.164 6.48 1.242 8.684.378.346 1.135-.005.94-.5-.98-2.454-1.52-4.386-.917-7.004.276-1.2.803-2.4 1.413-3.482.253-.452.607-.778.952-1.1.48 1.8 1.35 3.498 1.755 5.328a8.85 8.85 0 0 1 .071 3.627c-.287 1.52-1.743 2.243-2.874 3.23a.22.22 0 0 0 .11.375c2.603.406 4.184-2.133 4.334-4.2.215-2.98-.43-6.824-2.72-9.135M1.6 8.4l-.035-.126c-.095-.268-.46-.346-.698-.162-2.028 1.556.05 4.605 1.027 6.258C3.5 17.077 6.6 19.954 10.37 20c.592.008.872-.756.303-.988-2.884-1.176-4.975-2.257-6.78-4.607-.826-1.077-1.45-2.312-1.926-3.53-.196-.504-.205-.98-.228-1.46 1.92 1.015 4.074 1.7 5.972 2.803 1.263.728 2.318 1.6 3.198 2.653 1.096 1.323.6 2.827.582 4.3-.002.165.238.3.4.205 2.362-1.424 1.38-4.363-.295-6.002C9.193 11.027 5.36 8.593 1.6 8.4m36.736-2l.036-.126c.095-.268.46-.346.698-.162 2.028 1.556-.052 4.605-1.027 6.258-1.605 2.718-4.718 5.596-8.485 5.642-.593.008-.872-.756-.304-.988 2.885-1.176 4.976-2.257 6.78-4.607.827-1.077 1.452-2.312 1.927-3.53.196-.504.205-.98.228-1.46-1.92 1.015-4.074 1.7-5.972 2.803-1.263.728-2.318 1.6-3.2 2.653-1.095 1.323-.6 2.827-.582 4.3.002.165-.237.3-.4.205-2.362-1.424-1.38-4.363.295-6.002 2.415-2.36 6.247-4.794 10.016-4.998" transform="matrix(.920505 -.390731 .390731 .920505 .682592 16.609574)" fill="#6e964b" fill-rule="evenodd"/></svg>