<?xml version="1.0" encoding="UTF-8"?>
<svg id="Waschmaschine" xmlns="http://www.w3.org/2000/svg" version="1.1" viewBox="0 0 36 36">
  <!-- Generator: Adobe Illustrator 29.8.3, SVG Export Plug-In . SVG Version: 2.1.1 Build 3)  -->
  <defs>
    <style>
      .st0 {
        stroke-miterlimit: 10;
        stroke-width: .8px;
      }

      .st0, .st1 {
        fill: none;
        stroke: #000;
        stroke-linecap: round;
      }

      .st1 {
        stroke-linejoin: round;
        stroke-width: 1.3px;
      }
    </style>
  </defs>
  <path d="M17.95,14.8c4.2,0,7.61,3.41,7.61,7.61s-3.41,7.61-7.61,7.61-7.61-3.41-7.61-7.61,3.41-7.61,7.61-7.61M17.95,13.5c-4.92,0-8.91,3.99-8.91,8.91s3.99,8.91,8.91,8.91,8.91-3.99,8.91-8.91-3.99-8.91-8.91-8.91h0Z"/>
  <rect class="st1" x="5.81" y="2.22" width="24.28" height="32.08" rx=".63" ry=".63"/>
  <path class="st1" d="M24.4,6.04h2.26"/>
  <path class="st1" d="M9.34,6.04h2.26"/>
  <rect class="st1" x="15.11" y="4.37" width="5.78" height="3.35"/>
  <path class="st1" d="M6.04,9.1s4.19,1.34,11.96,1.34c7.78,0,11.96-1.34,11.96-1.34"/>
  <path class="st0" d="M18.36,16.76c2.13.16,4.08,1.51,4.89,3.64,1.11,2.93-.36,6.2-3.29,7.31s-6.2-.36-7.31-3.29c-.29-.77-.41-1.57-.36-2.34"/>
</svg>