<?xml version="1.0" encoding="UTF-8"?>
<svg id="Passform" xmlns="http://www.w3.org/2000/svg" version="1.1" viewBox="0 0 36 36">
  <!-- Generator: Adobe Illustrator 29.8.3, SVG Export Plug-In . SVG Version: 2.1.1 Build 3)  -->
  <defs>
    <style>
      .st0 {
        fill: #24282b;
      }

      .st1, .st2 {
        fill: none;
        stroke: #24282b;
        stroke-miterlimit: 10;
      }

      .st2 {
        stroke-linecap: round;
      }
    </style>
  </defs>
  <path class="st0" d="M18.08,5.92c-.02.51,0,1.48.66,2.18.55.58,1.33.8,2.16,1.02.27.07.56.15.87.25.8.26.88.41.66,1.16-.46,1.49-1.01,3.14-1.38,4.19-.17.5-1,3.06-.27,4.85.47,1.14,1,2.84,1.1,3.38.1.6.22,1.73.22,2.52,0,.11,0,.23,0,.36,0,.28.03.92-.08,1.13-.01,0-.03,0-.06,0h-9.12s-.04,0-.06,0c-.11-.21-.09-.85-.08-1.13,0-.13,0-.25,0-.36,0-.79.11-1.92.22-2.52.09-.54.63-2.24,1.1-3.38.73-1.79-.1-4.35-.27-4.85-.36-1.04-.92-2.69-1.38-4.19-.23-.75-.14-.9.66-1.16.31-.1.6-.18.87-.25.83-.23,1.61-.44,2.16-1.02.66-.7.67-1.67.66-2.18h1.37M18.34,4.92h-1.88c-.75,0-.75.49-.75.78s.12,1.19-.38,1.71c-.49.52-1.45.64-2.6,1.01-1.16.38-1.74.98-1.3,2.4.43,1.42.98,3.07,1.39,4.23.41,1.16.75,3.01.29,4.14-.46,1.13-1.04,2.92-1.16,3.59s-.23,1.85-.23,2.69-.23,2.49,1.13,2.49h9.12c1.36,0,1.13-1.65,1.13-2.49s-.12-2.03-.23-2.69-.69-2.46-1.16-3.59c-.46-1.13-.12-2.98.29-4.14.41-1.16.96-2.81,1.39-4.23.43-1.42-.14-2.03-1.3-2.4-1.16-.38-2.11-.49-2.6-1.01-.49-.52-.38-1.42-.38-1.71s0-.78-.75-.78h0Z"/>
  <path class="st0" d="M22.61,34.26h-10.43c-.36,0-.66.3-.66.66v1.08h11.75v-1.08c0-.36-.3-.66-.66-.66h0Z"/>
  <line class="st2" x1="17.4" y1="30.14" x2="17.4" y2="34.84"/>
  <circle class="st0" cx="17.4" cy="1.4" r="1.4" transform="translate(.61 6.18) rotate(-20.49)"/>
  <line class="st1" x1="17.4" y1="2.29" x2="17.4" y2="5.19"/>
</svg>