<svg xmlns="http://www.w3.org/2000/svg" viewBox="0 0 93 93"><path d="M18.8 43.7c-9.9.7-17.6 8.9-17.7 18.8.2 10.7 8.8 19.3 19.5 19.5h54c9.9 0 17.5-11 17.5-20.5 0-9.3-7.9-20.5-17.7-20.5h-.3-.1c-1.4-14-13.9-24.2-27.9-22.8C33 19.4 23 30.5 23.1 43.7c-.9-.1-1.8-.1-2.7-.1M74.6 79h-54c-9.1-.1-16.4-7.4-16.5-16.5 0-8.8 7-15.9 15.8-15.9h.5c14.1.5 14.7 13.3 14.7 13.9 0 .8.7 1.5 1.5 1.5s1.5-.7 1.5-1.5c0-.1-.4-12.6-12-16V44c-.2-12.4 9.6-22.7 22.1-23 12.2-.2 22.4 9.3 22.9 21.6l.1 1.6 1.5-.1h1.6c7.9 0 14.7 9.6 14.7 17.5.1 7.8-6.3 17.4-14.4 17.4z" fill="#333"/></svg>