<svg version="1.1" id="Infografik_x5F_Erde" xmlns="http://www.w3.org/2000/svg" x="0" y="0" viewBox="0 0 93 93" xml:space="preserve"><style>.st0{fill:#333}</style><path class="st0" d="M76.9 8.6c-9.2 2.6-18.1 6-26.7 10.2-18.8 9.1-30.6 19.7-35.1 31.5-3.8 10-2.2 20.7 5 31.6l.2.3.4.2c4.4 1.9 9.1 2.9 13.9 2.9 5.7 0 11.2-1.5 16.1-4.3 16.2-9.4 25.7-33.3 28.2-70.8V8l-2 .6zM49.2 78.3c-12.2 7.1-24.6 2.5-26.9 1.5-6.4-10-7.9-19.6-4.4-28.5C23.1 37.6 39 27.5 51.5 21.5c7.8-3.8 15.9-6.9 24.2-9.4-2.6 34.7-11.8 57.6-26.5 66.2z"/><path class="st0" d="M23.8 73.9c-.1.8.5 1.6 1.3 1.7h.2c.8 0 1.4-.6 1.5-1.3 0-.3 4.1-31.2 33-41.8.8-.3 1.2-1.1.9-1.9-.3-.8-1.1-1.2-1.9-.9-30.7 11.1-34.9 43.8-35 44.2z"/></svg>